<svg width="2000" height="1800" viewBox="0 0 2000 1800" fill="none" xmlns="http://www.w3.org/2000/svg">
<rect width="200" height="200" fill="white"/>
<path d="M112.043 10C82.1958 10 58 19.0096 58 30.1234C58 41.2373 82.1958 50.2469 112.043 50.2469C128.77 50.2469 142.331 46.4331 142.331 41.7284C142.331 37.0237 128.77 33.2099 112.043 33.2099C82.1958 33.2099 58 42.2194 58 53.3333C58 64.4472 82.1958 73.4571 112.043 73.4571C128.77 73.4571 142.331 69.6431 142.331 64.9383C142.331 60.2336 128.77 56.4197 112.043 56.4197C82.1958 56.4197 58 65.4846 58 76.6666C58 87.8486 82.1958 96.9138 112.043 96.9138C128.77 96.9138 142.331 93.0998 142.331 88.395C142.331 83.6902 128.77 79.8768 112.043 79.8768C82.1958 79.8768 58 88.8861 58 100C58 111.114 82.1958 120.123 112.043 120.123C128.77 120.123 142.331 116.31 142.331 111.605C142.331 106.9 128.77 103.086 112.043 103.086C82.1958 103.086 58 112.096 58 123.21C58 134.324 82.1958 143.333 112.043 143.333C128.77 143.333 142.331 139.519 142.331 134.815C142.331 130.11 128.77 126.296 112.043 126.296C82.1958 126.296 58 135.306 58 146.419C58 157.533 82.1958 166.543 112.043 166.543C128.77 166.543 142.331 162.729 142.331 158.024C142.331 153.32 128.77 149.506 112.043 149.506C82.1958 149.506 58 158.571 58 169.753C58 180.935 82.1958 190 112.043 190" stroke="#FBE5D1" stroke-width="4" stroke-linecap="round"/>
<rect width="200" height="200" transform="translate(200)" fill="white"/>
<path d="M282.533 86.2489C294.905 98.6206 300.52 115.188 299.375 131.376C283.188 132.52 266.62 126.905 254.249 114.533C241.877 102.161 236.262 85.5935 237.406 69.4063C253.593 68.2621 270.161 73.8772 282.533 86.2489Z" fill="#CCF5AC" fill-opacity="0.25" stroke="#FBE5D1" stroke-width="4"/>
<path d="M345.533 114.533C333.161 126.905 316.593 132.52 300.406 131.376C299.262 115.188 304.877 98.6206 317.249 86.2489C329.62 73.8772 346.188 68.2621 362.375 69.4063C363.52 85.5935 357.905 102.161 345.533 114.533Z" fill="#CCF5AC" fill-opacity="0.25" stroke="#FBE5D1" stroke-width="4"/>
<rect width="200" height="200" transform="translate(400)" fill="white"/>
<path d="M500.5 46L566 116L500.5 154.5M500.5 46L434 116L500.5 154.5M500.5 46V154.5" stroke="#FBE5D1" stroke-width="4"/>
<rect width="200" height="200" transform="translate(600)" fill="white"/>
<path d="M700 158C732.033 158 758 132.033 758 100C758 67.9675 732.033 42 700 42C667.967 42 642 67.9675 642 100C642 132.033 667.967 158 700 158Z" fill="white" stroke="#FBE5D1" stroke-width="4"/>
<path d="M696.518 56.9907L700 46.4016L703.483 56.9907C709.634 75.6953 724.305 90.3657 743.009 96.5173L753.598 99.9999L743.009 103.483C724.305 109.634 709.634 124.305 703.483 143.009L700 153.598L696.518 143.009C690.366 124.305 675.696 109.634 656.991 103.483L646.402 99.9999L656.991 96.5173C675.696 90.3657 690.366 75.6953 696.518 56.9907Z" stroke="#FBE5D1" stroke-width="4"/>
<rect width="200" height="200" transform="translate(800)" fill="white"/>
<path d="M840 76C846.667 70.6667 853.333 70.6667 860 76C866.667 81.3333 873.333 81.3333 880 76C886.667 70.6667 893.333 70.6667 900 76C906.667 81.3333 913.333 81.3333 920 76C926.667 70.6667 933.333 70.6667 940 76C946.667 81.3333 953.333 81.3333 960 76" stroke="#FBE5D1" stroke-width="4" stroke-linecap="round"/>
<path d="M840 100C846.667 94.6667 853.333 94.6667 860 100C866.667 105.333 873.333 105.333 880 100C886.667 94.6667 893.333 94.6667 900 100C906.667 105.333 913.333 105.333 920 100C926.667 94.6667 933.333 94.6667 940 100C946.667 105.333 953.333 105.333 960 100" stroke="#FBE5D1" stroke-width="4" stroke-linecap="round"/>
<path d="M840 124C846.667 118.667 853.333 118.667 860 124C866.667 129.333 873.333 129.333 880 124C886.667 118.667 893.333 118.667 900 124C906.667 129.333 913.333 129.333 920 124C926.667 118.667 933.333 118.667 940 124C946.667 129.333 953.333 129.333 960 124" stroke="#FBE5D1" stroke-width="4" stroke-linecap="round"/>
<rect width="200" height="200" transform="translate(1000)" fill="white"/>
<path d="M1099.5 46L1165 116L1099.5 154.5M1099.5 46L1033 116L1099.5 154.5M1099.5 46V154.5" stroke="#FBE5D1" stroke-width="4"/>
<rect width="200" height="200" transform="translate(1200)" fill="white"/>
<path d="M1263.46 57L1311.96 141L1360.46 57H1263.46Z" stroke="#FBE5D1" stroke-width="4"/>
<path d="M1239.46 143L1287.96 59L1336.46 143H1239.46Z" stroke="#FBE5D1" stroke-width="4"/>
<rect width="200" height="200" transform="translate(1400)" fill="white"/>
<path d="M1538 61.8182C1538 66.7681 1534.29 71.6897 1527.33 75.4902C1520.44 79.2494 1510.78 81.6364 1500 81.6364C1489.22 81.6364 1479.57 79.2494 1472.67 75.4902C1465.71 71.6897 1462 66.7681 1462 61.8182C1462 56.8682 1465.71 51.9467 1472.67 48.1462C1479.57 44.387 1489.22 42 1500 42C1510.78 42 1520.44 44.387 1527.33 48.1462C1534.29 51.9467 1538 56.8682 1538 61.8182Z" stroke="#FBE5D1" stroke-width="4"/>
<path d="M1538 138.182C1538 143.132 1534.29 148.053 1527.33 151.854C1520.44 155.613 1510.78 158 1500 158C1489.22 158 1479.57 155.613 1472.67 151.854C1465.71 148.053 1462 143.132 1462 138.182C1462 133.232 1465.71 128.31 1472.67 124.51C1479.57 120.751 1489.22 118.364 1500 118.364C1510.78 118.364 1520.44 120.751 1527.33 124.51C1534.29 128.31 1538 133.232 1538 138.182Z" stroke="#FBE5D1" stroke-width="4"/>
<path d="M1462 61.8184V137.455" stroke="#FBE5D1" stroke-width="4"/>
<path d="M1538 61.8184V137.455" stroke="#FBE5D1" stroke-width="4"/>
<path d="M1500 82V158" stroke="#FBE5D1" stroke-width="4.19524"/>
<rect width="200" height="200" transform="translate(1600)" fill="white"/>
<path fill-rule="evenodd" clip-rule="evenodd" d="M1670 40H1640V70H1670V100H1640V130H1670V160H1700V130H1730V160H1760V130H1730V100H1760V70H1730V40H1700V70H1670V40ZM1700 100H1730V70H1700V100ZM1700 100H1670V130H1700V100Z" fill="#FBE5D1"/>
<rect width="200" height="200" transform="translate(1800)" fill="white"/>
<path d="M1872 100C1887.46 100 1900 87.464 1900 72C1900 56.536 1887.46 44 1872 44C1856.54 44 1844 56.536 1844 72C1844 87.464 1856.54 100 1872 100Z" fill="white" stroke="#FBE5D1" stroke-width="4"/>
<path d="M1871.21 50.8077L1872 48.4016L1872.79 50.8077C1875.97 60.4617 1883.54 68.0335 1893.19 71.2086L1895.6 71.9999L1893.19 72.7912C1883.54 75.9663 1875.97 83.5381 1872.79 93.1921L1872 95.5982L1871.21 93.1921C1868.03 83.5381 1860.46 75.9663 1850.81 72.7912L1848.4 71.9999L1850.81 71.2086C1860.46 68.0335 1868.03 60.4617 1871.21 50.8077Z" fill="#CCF5AC" fill-opacity="0.25" stroke="#FBE5D1" stroke-width="4"/>
<path d="M1872 156C1887.46 156 1900 143.464 1900 128C1900 112.536 1887.46 100 1872 100C1856.54 100 1844 112.536 1844 128C1844 143.464 1856.54 156 1872 156Z" fill="white" stroke="#FBE5D1" stroke-width="4"/>
<path d="M1928 100C1943.46 100 1956 87.464 1956 72C1956 56.536 1943.46 44 1928 44C1912.54 44 1900 56.536 1900 72C1900 87.464 1912.54 100 1928 100Z" fill="white" stroke="#FBE5D1" stroke-width="4"/>
<path d="M1928 156C1943.46 156 1956 143.464 1956 128C1956 112.536 1943.46 100 1928 100C1912.54 100 1900 112.536 1900 128C1900 143.464 1912.54 156 1928 156Z" fill="white" stroke="#FBE5D1" stroke-width="4"/>
<path d="M1927.21 106.808L1928 104.402L1928.79 106.808C1931.97 116.462 1939.54 124.034 1949.19 127.209L1951.6 128L1949.19 128.791C1939.54 131.966 1931.97 139.538 1928.79 149.192L1928 151.598L1927.21 149.192C1924.03 139.538 1916.46 131.966 1906.81 128.791L1904.4 128L1906.81 127.209C1916.46 124.034 1924.03 116.462 1927.21 106.808Z" stroke="#FBE5D1" stroke-width="4"/>
<rect width="200" height="200" transform="translate(0 200)" fill="white"/>
<path d="M166.5 316L101 246V354.5L166.5 316Z" fill="#FFEDD4" fill-opacity="0.5"/>
<path d="M99.5 246L165 316L99.5 354.5M99.5 246L33 316L99.5 354.5M99.5 246V354.5" stroke="#FBE5D1" stroke-width="4"/>
<rect width="200" height="200" transform="translate(200 200)" fill="white"/>
<path d="M263.464 257L311.962 341L360.459 257H263.464Z" fill="#FFEDD4" fill-opacity="0.5" stroke="#FBE5D1" stroke-width="4"/>
<path d="M239.464 343L287.962 259L336.459 343H239.464Z" stroke="#FBE5D1" stroke-width="4"/>
<rect width="200" height="200" transform="translate(400 200)" fill="white"/>
<path d="M538 261.818C538 266.768 534.294 271.69 527.327 275.49C520.435 279.249 510.777 281.636 500 281.636C489.223 281.636 479.565 279.249 472.673 275.49C465.706 271.69 462 266.768 462 261.818C462 256.868 465.706 251.947 472.673 248.146C479.565 244.387 489.223 242 500 242C510.777 242 520.435 244.387 527.327 248.146C534.294 251.947 538 256.868 538 261.818Z" fill="#FFEDD4" fill-opacity="0.5" stroke="#FBE5D1" stroke-width="4"/>
<path d="M538 338.182C538 343.132 534.294 348.053 527.327 351.854C520.435 355.613 510.777 358 500 358C489.223 358 479.565 355.613 472.673 351.854C465.706 348.053 462 343.132 462 338.182C462 333.232 465.706 328.31 472.673 324.51C479.565 320.751 489.223 318.364 500 318.364C510.777 318.364 520.435 320.751 527.327 324.51C534.294 328.31 538 333.232 538 338.182Z" fill="#FFEDD4" fill-opacity="0.5" stroke="#FBE5D1" stroke-width="4"/>
<path d="M462 261.818V337.455" stroke="#FBE5D1" stroke-width="4"/>
<path d="M538 261.818V337.455" stroke="#FBE5D1" stroke-width="4"/>
<path d="M500 282V358" stroke="#FBE5D1" stroke-width="4.19524"/>
<rect width="200" height="200" transform="translate(600 200)" fill="white"/>
<path fill-rule="evenodd" clip-rule="evenodd" d="M670 240H640V270H670V300H640V330H670V360H700V330H730V360H760V330H730V300H760V270H730V240H700V270H670V240ZM700 300H730V270H700V300ZM700 300H670V330H700V300Z" fill="#FBE5D1"/>
<rect width="200" height="200" transform="translate(800 200)" fill="white"/>
<path d="M872 300C887.464 300 900 287.464 900 272C900 256.536 887.464 244 872 244C856.536 244 844 256.536 844 272C844 287.464 856.536 300 872 300Z" fill="white" stroke="#FBE5D1" stroke-width="4"/>
<path d="M871.209 250.808L872 248.402L872.791 250.808C875.967 260.462 883.538 268.034 893.192 271.209L895.598 272L893.192 272.791C883.538 275.966 875.967 283.538 872.791 293.192L872 295.598L871.209 293.192C868.034 283.538 860.462 275.966 850.808 272.791L848.402 272L850.808 271.209C860.462 268.034 868.034 260.462 871.209 250.808Z" fill="#CCF5AC" fill-opacity="0.25" stroke="#FBE5D1" stroke-width="4"/>
<path d="M872 356C887.464 356 900 343.464 900 328C900 312.536 887.464 300 872 300C856.536 300 844 312.536 844 328C844 343.464 856.536 356 872 356Z" fill="white" stroke="#FBE5D1" stroke-width="4"/>
<path d="M928 300C943.464 300 956 287.464 956 272C956 256.536 943.464 244 928 244C912.536 244 900 256.536 900 272C900 287.464 912.536 300 928 300Z" fill="white" stroke="#FBE5D1" stroke-width="4"/>
<path d="M928 356C943.464 356 956 343.464 956 328C956 312.536 943.464 300 928 300C912.536 300 900 312.536 900 328C900 343.464 912.536 356 928 356Z" fill="white" stroke="#FBE5D1" stroke-width="4"/>
<path d="M927.209 306.808L928 304.402L928.791 306.808C931.966 316.462 939.538 324.034 949.192 327.209L951.598 328L949.192 328.791C939.538 331.966 931.966 339.538 928.791 349.192L928 351.598L927.209 349.192C924.034 339.538 916.462 331.966 906.808 328.791L904.402 328L906.808 327.209C916.462 324.034 924.034 316.462 927.209 306.808Z" fill="#FFEDD4" fill-opacity="0.5" stroke="#FBE5D1" stroke-width="4"/>
<rect width="200" height="200" transform="translate(1000 200)" fill="white"/>
<path d="M1102 300C1102 268.637 1126.89 243.088 1158 242.034V300C1158 331.363 1133.11 356.912 1102 357.966V300Z" stroke="#FBE5D1" stroke-width="4"/>
<path d="M1040 300C1040 266.863 1066.86 240 1100 240V300C1100 333.137 1073.14 360 1040 360V300Z" fill="#FFEDD4" fill-opacity="0.5"/>
<rect width="200" height="200" transform="translate(1200 200)" fill="white"/>
<path fill-rule="evenodd" clip-rule="evenodd" d="M1317.98 298.385C1328.14 288.231 1328.14 271.769 1317.98 261.615C1307.83 251.462 1291.37 251.462 1281.21 261.615C1271.06 271.769 1271.06 288.231 1281.21 298.385C1291.37 308.538 1307.83 308.538 1317.98 298.385ZM1320.81 258.787C1309.09 247.071 1290.1 247.071 1278.38 258.787C1269.36 267.812 1267.29 281.158 1272.17 292.167C1261.16 287.287 1247.81 289.359 1238.79 298.385C1227.07 310.101 1227.07 329.095 1238.79 340.811C1250.5 352.527 1269.5 352.527 1281.21 340.811L1299.6 322.426L1299.6 322.427L1317.98 340.811C1329.7 352.527 1348.69 352.527 1360.41 340.811C1372.12 329.096 1372.12 310.101 1360.41 298.385C1351.38 289.359 1338.04 287.287 1327.03 292.168C1331.91 281.158 1329.84 267.812 1320.81 258.787ZM1307.39 308.975C1302.29 310.342 1296.9 310.342 1291.8 308.975L1299.6 316.77L1307.39 308.975ZM1296.77 319.598L1278.38 301.213C1268.23 291.06 1251.77 291.06 1241.62 301.213C1231.46 311.367 1231.46 327.829 1241.62 337.983C1251.77 348.136 1268.23 348.136 1278.38 337.983L1296.77 319.598ZM1302.43 319.598L1320.81 301.213C1330.96 291.06 1347.43 291.06 1357.58 301.213C1367.73 311.367 1367.73 327.829 1357.58 337.983C1347.43 348.137 1330.96 348.137 1320.81 337.983L1302.43 319.598Z" fill="#FBE5D1"/>
<rect width="200" height="200" transform="translate(1400 200)" fill="white"/>
<path d="M1482.53 286.249C1494.9 298.621 1500.52 315.188 1499.38 331.376C1483.19 332.52 1466.62 326.905 1454.25 314.533C1441.88 302.161 1436.26 285.593 1437.41 269.406C1453.59 268.262 1470.16 273.877 1482.53 286.249Z" fill="#CCF5AC" fill-opacity="0.25" stroke="#FBE5D1" stroke-width="4"/>
<path d="M1545.53 314.533C1533.16 326.905 1516.59 332.52 1500.41 331.376C1499.26 315.188 1504.88 298.621 1517.25 286.249C1529.62 273.877 1546.19 268.262 1562.38 269.406C1563.52 285.593 1557.91 302.161 1545.53 314.533Z" fill="#CCF5AC" fill-opacity="0.25" stroke="#FBE5D1" stroke-width="4"/>
<rect width="200" height="200" transform="translate(1600 200)" fill="white"/>
<path d="M1712.04 210C1682.2 210 1658 219.01 1658 230.123C1658 241.237 1682.2 250.247 1712.04 250.247C1728.77 250.247 1742.33 246.433 1742.33 241.728C1742.33 237.024 1728.77 233.21 1712.04 233.21C1682.2 233.21 1658 242.219 1658 253.333C1658 264.447 1682.2 273.457 1712.04 273.457C1728.77 273.457 1742.33 269.643 1742.33 264.938C1742.33 260.234 1728.77 256.42 1712.04 256.42C1682.2 256.42 1658 265.485 1658 276.667C1658 287.849 1682.2 296.914 1712.04 296.914C1728.77 296.914 1742.33 293.1 1742.33 288.395C1742.33 283.69 1728.77 279.877 1712.04 279.877C1682.2 279.877 1658 288.886 1658 300C1658 311.114 1682.2 320.123 1712.04 320.123C1728.77 320.123 1742.33 316.31 1742.33 311.605C1742.33 306.9 1728.77 303.086 1712.04 303.086C1682.2 303.086 1658 312.096 1658 323.21C1658 334.324 1682.2 343.333 1712.04 343.333C1728.77 343.333 1742.33 339.519 1742.33 334.815C1742.33 330.11 1728.77 326.296 1712.04 326.296C1682.2 326.296 1658 335.306 1658 346.419C1658 357.533 1682.2 366.543 1712.04 366.543C1728.77 366.543 1742.33 362.729 1742.33 358.024C1742.33 353.32 1728.77 349.506 1712.04 349.506C1682.2 349.506 1658 358.571 1658 369.753C1658 380.935 1682.2 390 1712.04 390" stroke="#FBE5D1" stroke-width="4" stroke-linecap="round"/>
<rect width="200" height="200" transform="translate(1800 200)" fill="white"/>
<path d="M1900 328V300H1928C1943.46 300 1956 312.536 1956 328C1956 343.464 1943.46 356 1928 356C1912.54 356 1900 343.464 1900 328Z" stroke="#FBE5D1" stroke-width="4"/>
<path d="M1900 328C1900 343.464 1887.46 356 1872 356C1856.54 356 1844 343.464 1844 328C1844 312.536 1856.54 300 1872 300C1887.46 300 1900 312.536 1900 328Z" stroke="#FBE5D1" stroke-width="4"/>
<path d="M1900 272V300H1928C1943.46 300 1956 287.464 1956 272C1956 256.536 1943.46 244 1928 244C1912.54 244 1900 256.536 1900 272Z" stroke="#FBE5D1" stroke-width="4"/>
<path d="M1900 272C1900 256.536 1887.46 244 1872 244C1856.54 244 1844 256.536 1844 272C1844 287.464 1856.54 300 1872 300C1887.46 300 1900 287.464 1900 272Z" stroke="#FBE5D1" stroke-width="4"/>
<rect width="200" height="200" transform="translate(0 400)" fill="white"/>
<path d="M100 528V500H128C143.464 500 156 512.536 156 528C156 543.464 143.464 556 128 556C112.536 556 100 543.464 100 528Z" stroke="#FBE5D1" stroke-width="4"/>
<path d="M100 528C100 543.464 87.464 556 72 556C56.536 556 44 543.464 44 528C44 512.536 56.536 500 72 500C87.464 500 100 512.536 100 528Z" stroke="#FBE5D1" stroke-width="4"/>
<path d="M100 472V500H128C143.464 500 156 487.464 156 472C156 456.536 143.464 444 128 444C112.536 444 100 456.536 100 472Z" stroke="#FBE5D1" stroke-width="4"/>
<path d="M100 472C100 456.536 87.464 444 72 444C56.536 444 44 456.536 44 472C44 487.464 56.536 500 72 500C87.464 500 100 487.464 100 472Z" stroke="#FBE5D1" stroke-width="4"/>
<rect width="200" height="200" transform="translate(200 400)" fill="white"/>
<path d="M240 467L300 496.231V559.821L240 534.179V467Z" fill="#FFEDD4" fill-opacity="0.5"/>
<path d="M360 467L300 496.231V559.821L360 534.179V467Z" fill="#CCF5AC" fill-opacity="0.25"/>
<path d="M300 440V496.41M300 440L240 467.179M300 440L360 467.179M300 496.41L240 467.179M300 496.41L360 467.179M300 496.41V560M240 467.179V534.359L300 560M360 467.179V534.359L300 560" stroke="#FBE5D1" stroke-width="4"/>
<rect width="200" height="200" transform="translate(400 400)" fill="white"/>
<path d="M502 500C502 468.637 526.894 443.088 558 442.034V500C558 531.363 533.106 556.912 502 557.966V500Z" stroke="#FBE5D1" stroke-width="4"/>
<path d="M440 500C440 466.863 466.863 440 500 440V500C500 533.137 473.137 560 440 560V500Z" fill="#FFEDD4" fill-opacity="0.5"/>
<rect width="200" height="200" transform="translate(600 400)" fill="white"/>
<path fill-rule="evenodd" clip-rule="evenodd" d="M717.983 498.385C728.136 488.231 728.136 471.769 717.983 461.615C707.829 451.462 691.367 451.462 681.213 461.615C671.06 471.769 671.06 488.231 681.213 498.385C691.367 508.538 707.829 508.538 717.983 498.385ZM720.811 458.787C709.095 447.071 690.1 447.071 678.385 458.787C669.359 467.812 667.287 481.158 672.167 492.167C661.158 487.287 647.812 489.359 638.787 498.385C627.071 510.101 627.071 529.095 638.787 540.811C650.502 552.527 669.497 552.527 681.213 540.811L699.598 522.426L699.598 522.427L717.983 540.811C729.699 552.527 748.694 552.527 760.409 540.811C772.125 529.096 772.125 510.101 760.409 498.385C751.384 489.359 738.038 487.287 727.029 492.168C731.909 481.158 729.837 467.812 720.811 458.787ZM707.393 508.975C702.293 510.342 696.903 510.342 691.803 508.975L699.598 516.77L707.393 508.975ZM696.77 519.598L678.385 501.213C668.231 491.06 651.769 491.06 641.615 501.213C631.462 511.367 631.462 527.829 641.615 537.983C651.769 548.136 668.231 548.136 678.385 537.983L696.77 519.598ZM702.426 519.598L720.811 501.213C730.965 491.06 747.427 491.06 757.581 501.213C767.734 511.367 767.734 527.829 757.581 537.983C747.427 548.137 730.965 548.137 720.811 537.983L702.426 519.598Z" fill="#FBE5D1"/>
<rect width="200" height="200" transform="translate(800 400)" fill="white"/>
<path d="M882.533 486.249C894.905 498.621 900.52 515.188 899.375 531.376C883.188 532.52 866.62 526.905 854.249 514.533C841.877 502.161 836.262 485.593 837.406 469.406C853.593 468.262 870.161 473.877 882.533 486.249Z" fill="#CCF5AC" fill-opacity="0.25" stroke="#FBE5D1" stroke-width="4"/>
<path d="M945.533 514.533C933.161 526.905 916.593 532.52 900.406 531.376C899.262 515.188 904.877 498.621 917.249 486.249C929.62 473.877 946.188 468.262 962.375 469.406C963.52 485.593 957.905 502.161 945.533 514.533Z" fill="#CCF5AC" fill-opacity="0.25" stroke="#FBE5D1" stroke-width="4"/>
<rect width="200" height="200" transform="translate(1000 400)" fill="white"/>
<path d="M1100.5 446L1166 516L1100.5 554.5M1100.5 446L1034 516L1100.5 554.5M1100.5 446V554.5" stroke="#FBE5D1" stroke-width="4"/>
<rect width="200" height="200" transform="translate(1200 400)" fill="white"/>
<path d="M1300 558C1332.03 558 1358 532.033 1358 500C1358 467.967 1332.03 442 1300 442C1267.97 442 1242 467.967 1242 500C1242 532.033 1267.97 558 1300 558Z" fill="white" stroke="#FBE5D1" stroke-width="4"/>
<path d="M1296.52 456.991L1300 446.402L1303.48 456.991C1309.63 475.695 1324.31 490.366 1343.01 496.517L1353.6 500L1343.01 503.483C1324.31 509.634 1309.63 524.305 1303.48 543.009L1300 553.598L1296.52 543.009C1290.37 524.305 1275.7 509.634 1256.99 503.483L1246.4 500L1256.99 496.517C1275.7 490.366 1290.37 475.695 1296.52 456.991Z" fill="#FFEDD4" fill-opacity="0.5" stroke="#FBE5D1" stroke-width="4"/>
<rect width="200" height="200" transform="translate(1400 400)" fill="white"/>
<path d="M1566.5 516L1501 446V554.5L1566.5 516Z" fill="#FFEDD4" fill-opacity="0.5"/>
<path d="M1499.5 446L1565 516L1499.5 554.5M1499.5 446L1433 516L1499.5 554.5M1499.5 446V554.5" stroke="#FBE5D1" stroke-width="4"/>
<rect width="200" height="200" transform="translate(1600 400)" fill="white"/>
<path d="M1663.46 457L1711.96 541L1760.46 457H1663.46Z" fill="#FFEDD4" fill-opacity="0.5" stroke="#FBE5D1" stroke-width="4"/>
<path d="M1639.46 543L1687.96 459L1736.46 543H1639.46Z" stroke="#FBE5D1" stroke-width="4"/>
<rect width="200" height="200" transform="translate(1800 400)" fill="white"/>
<path d="M1840 476C1846.67 470.667 1853.33 470.667 1860 476C1866.67 481.333 1873.33 481.333 1880 476C1886.67 470.667 1893.33 470.667 1900 476C1906.67 481.333 1913.33 481.333 1920 476C1926.67 470.667 1933.33 470.667 1940 476C1946.67 481.333 1953.33 481.333 1960 476" stroke="#FBE5D1" stroke-width="4" stroke-linecap="round"/>
<path d="M1840 500C1846.67 494.667 1853.33 494.667 1860 500C1866.67 505.333 1873.33 505.333 1880 500C1886.67 494.667 1893.33 494.667 1900 500C1906.67 505.333 1913.33 505.333 1920 500C1926.67 494.667 1933.33 494.667 1940 500C1946.67 505.333 1953.33 505.333 1960 500" stroke="#FBE5D1" stroke-width="4" stroke-linecap="round"/>
<path d="M1840 524C1846.67 518.667 1853.33 518.667 1860 524C1866.67 529.333 1873.33 529.333 1880 524C1886.67 518.667 1893.33 518.667 1900 524C1906.67 529.333 1913.33 529.333 1920 524C1926.67 518.667 1933.33 518.667 1940 524C1946.67 529.333 1953.33 529.333 1960 524" stroke="#FBE5D1" stroke-width="4" stroke-linecap="round"/>
<rect width="200" height="200" transform="translate(0 600)" fill="white"/>
<path d="M112.043 610C82.1958 610 58 619.01 58 630.123C58 641.237 82.1958 650.247 112.043 650.247C128.77 650.247 142.331 646.433 142.331 641.728C142.331 637.024 128.77 633.21 112.043 633.21C82.1958 633.21 58 642.219 58 653.333C58 664.447 82.1958 673.457 112.043 673.457C128.77 673.457 142.331 669.643 142.331 664.938C142.331 660.234 128.77 656.42 112.043 656.42C82.1958 656.42 58 665.485 58 676.667C58 687.849 82.1958 696.914 112.043 696.914C128.77 696.914 142.331 693.1 142.331 688.395C142.331 683.69 128.77 679.877 112.043 679.877C82.1958 679.877 58 688.886 58 700C58 711.114 82.1958 720.123 112.043 720.123C128.77 720.123 142.331 716.31 142.331 711.605C142.331 706.9 128.77 703.086 112.043 703.086C82.1958 703.086 58 712.096 58 723.21C58 734.324 82.1958 743.333 112.043 743.333C128.77 743.333 142.331 739.519 142.331 734.815C142.331 730.11 128.77 726.296 112.043 726.296C82.1958 726.296 58 735.306 58 746.419C58 757.533 82.1958 766.543 112.043 766.543C128.77 766.543 142.331 762.729 142.331 758.024C142.331 753.32 128.77 749.506 112.043 749.506C82.1958 749.506 58 758.571 58 769.753C58 780.935 82.1958 790 112.043 790" stroke="#FBE5D1" stroke-width="4" stroke-linecap="round"/>
<rect width="200" height="200" transform="translate(200 600)" fill="white"/>
<path d="M282.533 686.249C294.905 698.621 300.52 715.188 299.375 731.376C283.188 732.52 266.62 726.905 254.249 714.533C241.877 702.161 236.262 685.593 237.406 669.406C253.593 668.262 270.161 673.877 282.533 686.249Z" fill="#CCF5AC" fill-opacity="0.25" stroke="#FBE5D1" stroke-width="4"/>
<path d="M345.533 714.533C333.161 726.905 316.593 732.52 300.406 731.376C299.262 715.188 304.877 698.621 317.249 686.249C329.62 673.877 346.188 668.262 362.375 669.406C363.52 685.593 357.905 702.161 345.533 714.533Z" fill="#CCF5AC" fill-opacity="0.25" stroke="#FBE5D1" stroke-width="4"/>
<rect width="200" height="200" transform="translate(400 600)" fill="white"/>
<path d="M500.5 646L566 716L500.5 754.5M500.5 646L434 716L500.5 754.5M500.5 646V754.5" stroke="#FBE5D1" stroke-width="4"/>
<rect width="200" height="200" transform="translate(600 600)" fill="white"/>
<path d="M700 758C732.033 758 758 732.033 758 700C758 667.967 732.033 642 700 642C667.967 642 642 667.967 642 700C642 732.033 667.967 758 700 758Z" fill="white" stroke="#FBE5D1" stroke-width="4"/>
<path d="M696.518 656.991L700 646.402L703.483 656.991C709.634 675.695 724.305 690.366 743.009 696.517L753.598 700L743.009 703.483C724.305 709.634 709.634 724.305 703.483 743.009L700 753.598L696.518 743.009C690.366 724.305 675.696 709.634 656.991 703.483L646.402 700L656.991 696.517C675.696 690.366 690.366 675.695 696.518 656.991Z" fill="#FFEDD4" fill-opacity="0.5" stroke="#FBE5D1" stroke-width="4"/>
<rect width="200" height="200" transform="translate(800 600)" fill="white"/>
<path d="M840 676C846.667 670.667 853.333 670.667 860 676C866.667 681.333 873.333 681.333 880 676C886.667 670.667 893.333 670.667 900 676C906.667 681.333 913.333 681.333 920 676C926.667 670.667 933.333 670.667 940 676C946.667 681.333 953.333 681.333 960 676" stroke="#FBE5D1" stroke-width="4" stroke-linecap="round"/>
<path d="M840 700C846.667 694.667 853.333 694.667 860 700C866.667 705.333 873.333 705.333 880 700C886.667 694.667 893.333 694.667 900 700C906.667 705.333 913.333 705.333 920 700C926.667 694.667 933.333 694.667 940 700C946.667 705.333 953.333 705.333 960 700" stroke="#FBE5D1" stroke-width="4" stroke-linecap="round"/>
<path d="M840 724C846.667 718.667 853.333 718.667 860 724C866.667 729.333 873.333 729.333 880 724C886.667 718.667 893.333 718.667 900 724C906.667 729.333 913.333 729.333 920 724C926.667 718.667 933.333 718.667 940 724C946.667 729.333 953.333 729.333 960 724" stroke="#FBE5D1" stroke-width="4" stroke-linecap="round"/>
<rect width="200" height="200" transform="translate(1000 600)" fill="white"/>
<path d="M1166.5 716L1101 646V754.5L1166.5 716Z" fill="#FFEDD4" fill-opacity="0.5"/>
<path d="M1099.5 646L1165 716L1099.5 754.5M1099.5 646L1033 716L1099.5 754.5M1099.5 646V754.5" stroke="#FBE5D1" stroke-width="4"/>
<rect width="200" height="200" transform="translate(1200 600)" fill="white"/>
<path d="M1263.46 657L1311.96 741L1360.46 657H1263.46Z" fill="#FFEDD4" fill-opacity="0.5" stroke="#FBE5D1" stroke-width="4"/>
<path d="M1239.46 743L1287.96 659L1336.46 743H1239.46Z" stroke="#FBE5D1" stroke-width="4"/>
<rect width="200" height="200" transform="translate(1400 600)" fill="white"/>
<path d="M1538 661.818C1538 666.768 1534.29 671.69 1527.33 675.49C1520.44 679.249 1510.78 681.636 1500 681.636C1489.22 681.636 1479.57 679.249 1472.67 675.49C1465.71 671.69 1462 666.768 1462 661.818C1462 656.868 1465.71 651.947 1472.67 648.146C1479.57 644.387 1489.22 642 1500 642C1510.78 642 1520.44 644.387 1527.33 648.146C1534.29 651.947 1538 656.868 1538 661.818Z" fill="#FFEDD4" fill-opacity="0.5" stroke="#FBE5D1" stroke-width="4"/>
<path d="M1538 738.182C1538 743.132 1534.29 748.053 1527.33 751.854C1520.44 755.613 1510.78 758 1500 758C1489.22 758 1479.57 755.613 1472.67 751.854C1465.71 748.053 1462 743.132 1462 738.182C1462 733.232 1465.71 728.31 1472.67 724.51C1479.57 720.751 1489.22 718.364 1500 718.364C1510.78 718.364 1520.44 720.751 1527.33 724.51C1534.29 728.31 1538 733.232 1538 738.182Z" fill="#FFEDD4" fill-opacity="0.5" stroke="#FBE5D1" stroke-width="4"/>
<path d="M1462 661.818V737.455" stroke="#FBE5D1" stroke-width="4"/>
<path d="M1538 661.818V737.455" stroke="#FBE5D1" stroke-width="4"/>
<path d="M1500 682V758" stroke="#FBE5D1" stroke-width="4.19524"/>
<rect width="200" height="200" transform="translate(1600 600)" fill="white"/>
<path fill-rule="evenodd" clip-rule="evenodd" d="M1670 640H1640V670H1670V700H1640V730H1670V760H1700V730H1730V760H1760V730H1730V700H1760V670H1730V640H1700V670H1670V640ZM1700 700H1730V670H1700V700ZM1700 700H1670V730H1700V700Z" fill="#FBE5D1"/>
<rect width="200" height="200" transform="translate(1800 600)" fill="white"/>
<path d="M1872 700C1887.46 700 1900 687.464 1900 672C1900 656.536 1887.46 644 1872 644C1856.54 644 1844 656.536 1844 672C1844 687.464 1856.54 700 1872 700Z" fill="white" stroke="#FBE5D1" stroke-width="4"/>
<path d="M1871.21 650.808L1872 648.402L1872.79 650.808C1875.97 660.462 1883.54 668.034 1893.19 671.209L1895.6 672L1893.19 672.791C1883.54 675.966 1875.97 683.538 1872.79 693.192L1872 695.598L1871.21 693.192C1868.03 683.538 1860.46 675.966 1850.81 672.791L1848.4 672L1850.81 671.209C1860.46 668.034 1868.03 660.462 1871.21 650.808Z" fill="#CCF5AC" fill-opacity="0.25" stroke="#FBE5D1" stroke-width="4"/>
<path d="M1872 756C1887.46 756 1900 743.464 1900 728C1900 712.536 1887.46 700 1872 700C1856.54 700 1844 712.536 1844 728C1844 743.464 1856.54 756 1872 756Z" fill="white" stroke="#FBE5D1" stroke-width="4"/>
<path d="M1928 700C1943.46 700 1956 687.464 1956 672C1956 656.536 1943.46 644 1928 644C1912.54 644 1900 656.536 1900 672C1900 687.464 1912.54 700 1928 700Z" fill="white" stroke="#FBE5D1" stroke-width="4"/>
<path d="M1928 756C1943.46 756 1956 743.464 1956 728C1956 712.536 1943.46 700 1928 700C1912.54 700 1900 712.536 1900 728C1900 743.464 1912.54 756 1928 756Z" fill="white" stroke="#FBE5D1" stroke-width="4"/>
<path d="M1927.21 706.808L1928 704.402L1928.79 706.808C1931.97 716.462 1939.54 724.034 1949.19 727.209L1951.6 728L1949.19 728.791C1939.54 731.966 1931.97 739.538 1928.79 749.192L1928 751.598L1927.21 749.192C1924.03 739.538 1916.46 731.966 1906.81 728.791L1904.4 728L1906.81 727.209C1916.46 724.034 1924.03 716.462 1927.21 706.808Z" fill="#FFEDD4" fill-opacity="0.5" stroke="#FBE5D1" stroke-width="4"/>
<rect width="200" height="200" transform="translate(0 800)" fill="white"/>
<path d="M166.5 916L101 846V954.5L166.5 916Z" fill="#FFEDD4" fill-opacity="0.5"/>
<path d="M99.5 846L165 916L99.5 954.5M99.5 846L33 916L99.5 954.5M99.5 846V954.5" stroke="#FBE5D1" stroke-width="4"/>
<rect width="200" height="200" transform="translate(200 800)" fill="white"/>
<path d="M263.464 857L311.962 941L360.459 857H263.464Z" fill="#FFEDD4" fill-opacity="0.5" stroke="#FBE5D1" stroke-width="4"/>
<path d="M239.464 943L287.962 859L336.459 943H239.464Z" stroke="#FBE5D1" stroke-width="4"/>
<rect width="200" height="200" transform="translate(400 800)" fill="white"/>
<path d="M538 861.818C538 866.768 534.294 871.69 527.327 875.49C520.435 879.249 510.777 881.636 500 881.636C489.223 881.636 479.565 879.249 472.673 875.49C465.706 871.69 462 866.768 462 861.818C462 856.868 465.706 851.947 472.673 848.146C479.565 844.387 489.223 842 500 842C510.777 842 520.435 844.387 527.327 848.146C534.294 851.947 538 856.868 538 861.818Z" fill="#FFEDD4" fill-opacity="0.5" stroke="#FBE5D1" stroke-width="4"/>
<path d="M538 938.182C538 943.132 534.294 948.053 527.327 951.854C520.435 955.613 510.777 958 500 958C489.223 958 479.565 955.613 472.673 951.854C465.706 948.053 462 943.132 462 938.182C462 933.232 465.706 928.31 472.673 924.51C479.565 920.751 489.223 918.364 500 918.364C510.777 918.364 520.435 920.751 527.327 924.51C534.294 928.31 538 933.232 538 938.182Z" fill="#FFEDD4" fill-opacity="0.5" stroke="#FBE5D1" stroke-width="4"/>
<path d="M462 861.818V937.455" stroke="#FBE5D1" stroke-width="4"/>
<path d="M538 861.818V937.455" stroke="#FBE5D1" stroke-width="4"/>
<path d="M500 882V958" stroke="#FBE5D1" stroke-width="4.19524"/>
<rect width="200" height="200" transform="translate(600 800)" fill="white"/>
<path fill-rule="evenodd" clip-rule="evenodd" d="M670 840H640V870H670V900H640V930H670V960H700V930H730V960H760V930H730V900H760V870H730V840H700V870H670V840ZM700 900H730V870H700V900ZM700 900H670V930H700V900Z" fill="#FBE5D1"/>
<rect width="200" height="200" transform="translate(800 800)" fill="white"/>
<path d="M872 900C887.464 900 900 887.464 900 872C900 856.536 887.464 844 872 844C856.536 844 844 856.536 844 872C844 887.464 856.536 900 872 900Z" fill="white" stroke="#FBE5D1" stroke-width="4"/>
<path d="M871.209 850.808L872 848.402L872.791 850.808C875.967 860.462 883.538 868.034 893.192 871.209L895.598 872L893.192 872.791C883.538 875.966 875.967 883.538 872.791 893.192L872 895.598L871.209 893.192C868.034 883.538 860.462 875.966 850.808 872.791L848.402 872L850.808 871.209C860.462 868.034 868.034 860.462 871.209 850.808Z" fill="#CCF5AC" fill-opacity="0.25" stroke="#FBE5D1" stroke-width="4"/>
<path d="M872 956C887.464 956 900 943.464 900 928C900 912.536 887.464 900 872 900C856.536 900 844 912.536 844 928C844 943.464 856.536 956 872 956Z" fill="white" stroke="#FBE5D1" stroke-width="4"/>
<path d="M928 900C943.464 900 956 887.464 956 872C956 856.536 943.464 844 928 844C912.536 844 900 856.536 900 872C900 887.464 912.536 900 928 900Z" fill="white" stroke="#FBE5D1" stroke-width="4"/>
<path d="M928 956C943.464 956 956 943.464 956 928C956 912.536 943.464 900 928 900C912.536 900 900 912.536 900 928C900 943.464 912.536 956 928 956Z" fill="white" stroke="#FBE5D1" stroke-width="4"/>
<path d="M927.209 906.808L928 904.402L928.791 906.808C931.966 916.462 939.538 924.034 949.192 927.209L951.598 928L949.192 928.791C939.538 931.966 931.966 939.538 928.791 949.192L928 951.598L927.209 949.192C924.034 939.538 916.462 931.966 906.808 928.791L904.402 928L906.808 927.209C916.462 924.034 924.034 916.462 927.209 906.808Z" fill="#FFEDD4" fill-opacity="0.5" stroke="#FBE5D1" stroke-width="4"/>
<rect width="200" height="200" transform="translate(1000 800)" fill="white"/>
<path d="M1102 900C1102 868.637 1126.89 843.088 1158 842.034V900C1158 931.363 1133.11 956.912 1102 957.966V900Z" stroke="#FBE5D1" stroke-width="4"/>
<path d="M1040 900C1040 866.863 1066.86 840 1100 840V900C1100 933.137 1073.14 960 1040 960V900Z" fill="#FFEDD4" fill-opacity="0.5"/>
<rect width="200" height="200" transform="translate(1200 800)" fill="white"/>
<path fill-rule="evenodd" clip-rule="evenodd" d="M1317.98 898.385C1328.14 888.231 1328.14 871.769 1317.98 861.615C1307.83 851.462 1291.37 851.462 1281.21 861.615C1271.06 871.769 1271.06 888.231 1281.21 898.385C1291.37 908.538 1307.83 908.538 1317.98 898.385ZM1320.81 858.787C1309.09 847.071 1290.1 847.071 1278.38 858.787C1269.36 867.812 1267.29 881.158 1272.17 892.167C1261.16 887.287 1247.81 889.359 1238.79 898.385C1227.07 910.101 1227.07 929.095 1238.79 940.811C1250.5 952.527 1269.5 952.527 1281.21 940.811L1299.6 922.426L1299.6 922.427L1317.98 940.811C1329.7 952.527 1348.69 952.527 1360.41 940.811C1372.12 929.096 1372.12 910.101 1360.41 898.385C1351.38 889.359 1338.04 887.287 1327.03 892.168C1331.91 881.158 1329.84 867.812 1320.81 858.787ZM1307.39 908.975C1302.29 910.342 1296.9 910.342 1291.8 908.975L1299.6 916.77L1307.39 908.975ZM1296.77 919.598L1278.38 901.213C1268.23 891.06 1251.77 891.06 1241.62 901.213C1231.46 911.367 1231.46 927.829 1241.62 937.983C1251.77 948.136 1268.23 948.136 1278.38 937.983L1296.77 919.598ZM1302.43 919.598L1320.81 901.213C1330.96 891.06 1347.43 891.06 1357.58 901.213C1367.73 911.367 1367.73 927.829 1357.58 937.983C1347.43 948.137 1330.96 948.137 1320.81 937.983L1302.43 919.598Z" fill="#FBE5D1"/>
<rect width="200" height="200" transform="translate(1400 800)" fill="white"/>
<path d="M1482.53 886.249C1494.9 898.621 1500.52 915.188 1499.38 931.376C1483.19 932.52 1466.62 926.905 1454.25 914.533C1441.88 902.161 1436.26 885.593 1437.41 869.406C1453.59 868.262 1470.16 873.877 1482.53 886.249Z" fill="#CCF5AC" fill-opacity="0.25" stroke="#FBE5D1" stroke-width="4"/>
<path d="M1545.53 914.533C1533.16 926.905 1516.59 932.52 1500.41 931.376C1499.26 915.188 1504.88 898.621 1517.25 886.249C1529.62 873.877 1546.19 868.262 1562.38 869.406C1563.52 885.593 1557.91 902.161 1545.53 914.533Z" fill="#CCF5AC" fill-opacity="0.25" stroke="#FBE5D1" stroke-width="4"/>
<rect width="200" height="200" transform="translate(1600 800)" fill="white"/>
<path d="M1712.04 810C1682.2 810 1658 819.01 1658 830.123C1658 841.237 1682.2 850.247 1712.04 850.247C1728.77 850.247 1742.33 846.433 1742.33 841.728C1742.33 837.024 1728.77 833.21 1712.04 833.21C1682.2 833.21 1658 842.219 1658 853.333C1658 864.447 1682.2 873.457 1712.04 873.457C1728.77 873.457 1742.33 869.643 1742.33 864.938C1742.33 860.234 1728.77 856.42 1712.04 856.42C1682.2 856.42 1658 865.485 1658 876.667C1658 887.849 1682.2 896.914 1712.04 896.914C1728.77 896.914 1742.33 893.1 1742.33 888.395C1742.33 883.69 1728.77 879.877 1712.04 879.877C1682.2 879.877 1658 888.886 1658 900C1658 911.114 1682.2 920.123 1712.04 920.123C1728.77 920.123 1742.33 916.31 1742.33 911.605C1742.33 906.9 1728.77 903.086 1712.04 903.086C1682.2 903.086 1658 912.096 1658 923.21C1658 934.324 1682.2 943.333 1712.04 943.333C1728.77 943.333 1742.33 939.519 1742.33 934.815C1742.33 930.11 1728.77 926.296 1712.04 926.296C1682.2 926.296 1658 935.306 1658 946.419C1658 957.533 1682.2 966.543 1712.04 966.543C1728.77 966.543 1742.33 962.729 1742.33 958.024C1742.33 953.32 1728.77 949.506 1712.04 949.506C1682.2 949.506 1658 958.571 1658 969.753C1658 980.935 1682.2 990 1712.04 990" stroke="#FBE5D1" stroke-width="4" stroke-linecap="round"/>
<rect width="200" height="200" transform="translate(1800 800)" fill="white"/>
<path d="M1900 928V900H1928C1943.46 900 1956 912.536 1956 928C1956 943.464 1943.46 956 1928 956C1912.54 956 1900 943.464 1900 928Z" stroke="#FBE5D1" stroke-width="4"/>
<path d="M1900 928C1900 943.464 1887.46 956 1872 956C1856.54 956 1844 943.464 1844 928C1844 912.536 1856.54 900 1872 900C1887.46 900 1900 912.536 1900 928Z" stroke="#FBE5D1" stroke-width="4"/>
<path d="M1900 872V900H1928C1943.46 900 1956 887.464 1956 872C1956 856.536 1943.46 844 1928 844C1912.54 844 1900 856.536 1900 872Z" stroke="#FBE5D1" stroke-width="4"/>
<path d="M1900 872C1900 856.536 1887.46 844 1872 844C1856.54 844 1844 856.536 1844 872C1844 887.464 1856.54 900 1872 900C1887.46 900 1900 887.464 1900 872Z" stroke="#FBE5D1" stroke-width="4"/>
<rect width="200" height="200" transform="translate(0 1000)" fill="white"/>
<path d="M100 1128V1100H128C143.464 1100 156 1112.54 156 1128C156 1143.46 143.464 1156 128 1156C112.536 1156 100 1143.46 100 1128Z" stroke="#FBE5D1" stroke-width="4"/>
<path d="M100 1128C100 1143.46 87.464 1156 72 1156C56.536 1156 44 1143.46 44 1128C44 1112.54 56.536 1100 72 1100C87.464 1100 100 1112.54 100 1128Z" stroke="#FBE5D1" stroke-width="4"/>
<path d="M100 1072V1100H128C143.464 1100 156 1087.46 156 1072C156 1056.54 143.464 1044 128 1044C112.536 1044 100 1056.54 100 1072Z" stroke="#FBE5D1" stroke-width="4"/>
<path d="M100 1072C100 1056.54 87.464 1044 72 1044C56.536 1044 44 1056.54 44 1072C44 1087.46 56.536 1100 72 1100C87.464 1100 100 1087.46 100 1072Z" stroke="#FBE5D1" stroke-width="4"/>
<rect width="200" height="200" transform="translate(200 1000)" fill="white"/>
<path d="M240 1067L300 1096.23V1159.82L240 1134.18V1067Z" fill="#FFEDD4" fill-opacity="0.5"/>
<path d="M360 1067L300 1096.23V1159.82L360 1134.18V1067Z" fill="#CCF5AC" fill-opacity="0.25"/>
<path d="M300 1040V1096.41M300 1040L240 1067.18M300 1040L360 1067.18M300 1096.41L240 1067.18M300 1096.41L360 1067.18M300 1096.41V1160M240 1067.18V1134.36L300 1160M360 1067.18V1134.36L300 1160" stroke="#FBE5D1" stroke-width="4"/>
<rect width="200" height="200" transform="translate(400 1000)" fill="white"/>
<path d="M502 1100C502 1068.64 526.894 1043.09 558 1042.03V1100C558 1131.36 533.106 1156.91 502 1157.97V1100Z" stroke="#FBE5D1" stroke-width="4"/>
<path d="M440 1100C440 1066.86 466.863 1040 500 1040V1100C500 1133.14 473.137 1160 440 1160V1100Z" fill="#FFEDD4" fill-opacity="0.5"/>
<rect width="200" height="200" transform="translate(600 1000)" fill="white"/>
<path fill-rule="evenodd" clip-rule="evenodd" d="M717.983 1098.38C728.136 1088.23 728.136 1071.77 717.983 1061.62C707.829 1051.46 691.367 1051.46 681.213 1061.62C671.06 1071.77 671.06 1088.23 681.213 1098.38C691.367 1108.54 707.829 1108.54 717.983 1098.38ZM720.811 1058.79C709.095 1047.07 690.1 1047.07 678.385 1058.79C669.359 1067.81 667.287 1081.16 672.167 1092.17C661.158 1087.29 647.812 1089.36 638.787 1098.38C627.071 1110.1 627.071 1129.09 638.787 1140.81C650.502 1152.53 669.497 1152.53 681.213 1140.81L699.598 1122.43L699.598 1122.43L717.983 1140.81C729.699 1152.53 748.694 1152.53 760.409 1140.81C772.125 1129.1 772.125 1110.1 760.409 1098.38C751.384 1089.36 738.038 1087.29 727.029 1092.17C731.909 1081.16 729.837 1067.81 720.811 1058.79ZM707.393 1108.97C702.293 1110.34 696.903 1110.34 691.803 1108.97L699.598 1116.77L707.393 1108.97ZM696.77 1119.6L678.385 1101.21C668.231 1091.06 651.769 1091.06 641.615 1101.21C631.462 1111.37 631.462 1127.83 641.615 1137.98C651.769 1148.14 668.231 1148.14 678.385 1137.98L696.77 1119.6ZM702.426 1119.6L720.811 1101.21C730.965 1091.06 747.427 1091.06 757.581 1101.21C767.734 1111.37 767.734 1127.83 757.581 1137.98C747.427 1148.14 730.965 1148.14 720.811 1137.98L702.426 1119.6Z" fill="#FBE5D1"/>
<rect width="200" height="200" transform="translate(800 1000)" fill="white"/>
<path d="M882.533 1086.25C894.905 1098.62 900.52 1115.19 899.375 1131.38C883.188 1132.52 866.62 1126.91 854.249 1114.53C841.877 1102.16 836.262 1085.59 837.406 1069.41C853.593 1068.26 870.161 1073.88 882.533 1086.25Z" fill="#CCF5AC" fill-opacity="0.25" stroke="#FBE5D1" stroke-width="4"/>
<path d="M945.533 1114.53C933.161 1126.91 916.593 1132.52 900.406 1131.38C899.262 1115.19 904.877 1098.62 917.249 1086.25C929.62 1073.88 946.188 1068.26 962.375 1069.41C963.52 1085.59 957.905 1102.16 945.533 1114.53Z" fill="#CCF5AC" fill-opacity="0.25" stroke="#FBE5D1" stroke-width="4"/>
<rect width="200" height="200" transform="translate(1000 1000)" fill="white"/>
<path d="M1100.5 1046L1166 1116L1100.5 1154.5M1100.5 1046L1034 1116L1100.5 1154.5M1100.5 1046V1154.5" stroke="#FBE5D1" stroke-width="4"/>
<rect width="200" height="200" transform="translate(1200 1000)" fill="white"/>
<path d="M1300 1158C1332.03 1158 1358 1132.03 1358 1100C1358 1067.97 1332.03 1042 1300 1042C1267.97 1042 1242 1067.97 1242 1100C1242 1132.03 1267.97 1158 1300 1158Z" fill="white" stroke="#FBE5D1" stroke-width="4"/>
<path d="M1296.52 1056.99L1300 1046.4L1303.48 1056.99C1309.63 1075.7 1324.31 1090.37 1343.01 1096.52L1353.6 1100L1343.01 1103.48C1324.31 1109.63 1309.63 1124.31 1303.48 1143.01L1300 1153.6L1296.52 1143.01C1290.37 1124.31 1275.7 1109.63 1256.99 1103.48L1246.4 1100L1256.99 1096.52C1275.7 1090.37 1290.37 1075.7 1296.52 1056.99Z" fill="#FFEDD4" fill-opacity="0.5" stroke="#FBE5D1" stroke-width="4"/>
<rect width="200" height="200" transform="translate(1400 1000)" fill="white"/>
<path d="M1566.5 1116L1501 1046V1154.5L1566.5 1116Z" fill="#FFEDD4" fill-opacity="0.5"/>
<path d="M1499.5 1046L1565 1116L1499.5 1154.5M1499.5 1046L1433 1116L1499.5 1154.5M1499.5 1046V1154.5" stroke="#FBE5D1" stroke-width="4"/>
<rect width="200" height="200" transform="translate(1600 1000)" fill="white"/>
<path d="M1663.46 1057L1711.96 1141L1760.46 1057H1663.46Z" fill="#FFEDD4" fill-opacity="0.5" stroke="#FBE5D1" stroke-width="4"/>
<path d="M1639.46 1143L1687.96 1059L1736.46 1143H1639.46Z" stroke="#FBE5D1" stroke-width="4"/>
<rect width="200" height="200" transform="translate(1800 1000)" fill="white"/>
<path d="M1840 1076C1846.67 1070.67 1853.33 1070.67 1860 1076C1866.67 1081.33 1873.33 1081.33 1880 1076C1886.67 1070.67 1893.33 1070.67 1900 1076C1906.67 1081.33 1913.33 1081.33 1920 1076C1926.67 1070.67 1933.33 1070.67 1940 1076C1946.67 1081.33 1953.33 1081.33 1960 1076" stroke="#FBE5D1" stroke-width="4" stroke-linecap="round"/>
<path d="M1840 1100C1846.67 1094.67 1853.33 1094.67 1860 1100C1866.67 1105.33 1873.33 1105.33 1880 1100C1886.67 1094.67 1893.33 1094.67 1900 1100C1906.67 1105.33 1913.33 1105.33 1920 1100C1926.67 1094.67 1933.33 1094.67 1940 1100C1946.67 1105.33 1953.33 1105.33 1960 1100" stroke="#FBE5D1" stroke-width="4" stroke-linecap="round"/>
<path d="M1840 1124C1846.67 1118.67 1853.33 1118.67 1860 1124C1866.67 1129.33 1873.33 1129.33 1880 1124C1886.67 1118.67 1893.33 1118.67 1900 1124C1906.67 1129.33 1913.33 1129.33 1920 1124C1926.67 1118.67 1933.33 1118.67 1940 1124C1946.67 1129.33 1953.33 1129.33 1960 1124" stroke="#FBE5D1" stroke-width="4" stroke-linecap="round"/>
<rect width="200" height="200" transform="translate(0 1200)" fill="white"/>
<path d="M112.043 1210C82.1958 1210 58 1219.01 58 1230.12C58 1241.24 82.1958 1250.25 112.043 1250.25C128.77 1250.25 142.331 1246.43 142.331 1241.73C142.331 1237.02 128.77 1233.21 112.043 1233.21C82.1958 1233.21 58 1242.22 58 1253.33C58 1264.45 82.1958 1273.46 112.043 1273.46C128.77 1273.46 142.331 1269.64 142.331 1264.94C142.331 1260.23 128.77 1256.42 112.043 1256.42C82.1958 1256.42 58 1265.48 58 1276.67C58 1287.85 82.1958 1296.91 112.043 1296.91C128.77 1296.91 142.331 1293.1 142.331 1288.39C142.331 1283.69 128.77 1279.88 112.043 1279.88C82.1958 1279.88 58 1288.89 58 1300C58 1311.11 82.1958 1320.12 112.043 1320.12C128.77 1320.12 142.331 1316.31 142.331 1311.61C142.331 1306.9 128.77 1303.09 112.043 1303.09C82.1958 1303.09 58 1312.1 58 1323.21C58 1334.32 82.1958 1343.33 112.043 1343.33C128.77 1343.33 142.331 1339.52 142.331 1334.82C142.331 1330.11 128.77 1326.3 112.043 1326.3C82.1958 1326.3 58 1335.31 58 1346.42C58 1357.53 82.1958 1366.54 112.043 1366.54C128.77 1366.54 142.331 1362.73 142.331 1358.02C142.331 1353.32 128.77 1349.51 112.043 1349.51C82.1958 1349.51 58 1358.57 58 1369.75C58 1380.94 82.1958 1390 112.043 1390" stroke="#FBE5D1" stroke-width="4" stroke-linecap="round"/>
<rect width="200" height="200" transform="translate(200 1200)" fill="white"/>
<path d="M282.533 1286.25C294.905 1298.62 300.52 1315.19 299.375 1331.38C283.188 1332.52 266.62 1326.9 254.249 1314.53C241.877 1302.16 236.262 1285.59 237.406 1269.41C253.593 1268.26 270.161 1273.88 282.533 1286.25Z" fill="#CCF5AC" fill-opacity="0.25" stroke="#FBE5D1" stroke-width="4"/>
<path d="M345.533 1314.53C333.161 1326.9 316.593 1332.52 300.406 1331.38C299.262 1315.19 304.877 1298.62 317.249 1286.25C329.62 1273.88 346.188 1268.26 362.375 1269.41C363.52 1285.59 357.905 1302.16 345.533 1314.53Z" fill="#CCF5AC" fill-opacity="0.25" stroke="#FBE5D1" stroke-width="4"/>
<rect width="200" height="200" transform="translate(400 1200)" fill="white"/>
<path d="M500.5 1246L566 1316L500.5 1354.5M500.5 1246L434 1316L500.5 1354.5M500.5 1246V1354.5" stroke="#FBE5D1" stroke-width="4"/>
<rect width="200" height="200" transform="translate(600 1200)" fill="white"/>
<path d="M700 1358C732.033 1358 758 1332.03 758 1300C758 1267.97 732.033 1242 700 1242C667.967 1242 642 1267.97 642 1300C642 1332.03 667.967 1358 700 1358Z" fill="white" stroke="#FBE5D1" stroke-width="4"/>
<path d="M696.518 1256.99L700 1246.4L703.483 1256.99C709.634 1275.7 724.305 1290.37 743.009 1296.52L753.598 1300L743.009 1303.48C724.305 1309.63 709.634 1324.3 703.483 1343.01L700 1353.6L696.518 1343.01C690.366 1324.3 675.696 1309.63 656.991 1303.48L646.402 1300L656.991 1296.52C675.696 1290.37 690.366 1275.7 696.518 1256.99Z" fill="#FFEDD4" fill-opacity="0.5" stroke="#FBE5D1" stroke-width="4"/>
<rect width="200" height="200" transform="translate(800 1200)" fill="white"/>
<path d="M840 1276C846.667 1270.67 853.333 1270.67 860 1276C866.667 1281.33 873.333 1281.33 880 1276C886.667 1270.67 893.333 1270.67 900 1276C906.667 1281.33 913.333 1281.33 920 1276C926.667 1270.67 933.333 1270.67 940 1276C946.667 1281.33 953.333 1281.33 960 1276" stroke="#FBE5D1" stroke-width="4" stroke-linecap="round"/>
<path d="M840 1300C846.667 1294.67 853.333 1294.67 860 1300C866.667 1305.33 873.333 1305.33 880 1300C886.667 1294.67 893.333 1294.67 900 1300C906.667 1305.33 913.333 1305.33 920 1300C926.667 1294.67 933.333 1294.67 940 1300C946.667 1305.33 953.333 1305.33 960 1300" stroke="#FBE5D1" stroke-width="4" stroke-linecap="round"/>
<path d="M840 1324C846.667 1318.67 853.333 1318.67 860 1324C866.667 1329.33 873.333 1329.33 880 1324C886.667 1318.67 893.333 1318.67 900 1324C906.667 1329.33 913.333 1329.33 920 1324C926.667 1318.67 933.333 1318.67 940 1324C946.667 1329.33 953.333 1329.33 960 1324" stroke="#FBE5D1" stroke-width="4" stroke-linecap="round"/>
<rect width="200" height="200" transform="translate(1000 1200)" fill="white"/>
<path d="M1166.5 1316L1101 1246V1354.5L1166.5 1316Z" fill="#FFEDD4" fill-opacity="0.5"/>
<path d="M1099.5 1246L1165 1316L1099.5 1354.5M1099.5 1246L1033 1316L1099.5 1354.5M1099.5 1246V1354.5" stroke="#FBE5D1" stroke-width="4"/>
<rect width="200" height="200" transform="translate(1200 1200)" fill="white"/>
<path d="M1263.46 1257L1311.96 1341L1360.46 1257H1263.46Z" fill="#FFEDD4" fill-opacity="0.5" stroke="#FBE5D1" stroke-width="4"/>
<path d="M1239.46 1343L1287.96 1259L1336.46 1343H1239.46Z" stroke="#FBE5D1" stroke-width="4"/>
<rect width="200" height="200" transform="translate(1400 1200)" fill="white"/>
<path d="M1538 1261.82C1538 1266.77 1534.29 1271.69 1527.33 1275.49C1520.44 1279.25 1510.78 1281.64 1500 1281.64C1489.22 1281.64 1479.57 1279.25 1472.67 1275.49C1465.71 1271.69 1462 1266.77 1462 1261.82C1462 1256.87 1465.71 1251.95 1472.67 1248.15C1479.57 1244.39 1489.22 1242 1500 1242C1510.78 1242 1520.44 1244.39 1527.33 1248.15C1534.29 1251.95 1538 1256.87 1538 1261.82Z" fill="#FFEDD4" fill-opacity="0.5" stroke="#FBE5D1" stroke-width="4"/>
<path d="M1538 1338.18C1538 1343.13 1534.29 1348.05 1527.33 1351.85C1520.44 1355.61 1510.78 1358 1500 1358C1489.22 1358 1479.57 1355.61 1472.67 1351.85C1465.71 1348.05 1462 1343.13 1462 1338.18C1462 1333.23 1465.71 1328.31 1472.67 1324.51C1479.57 1320.75 1489.22 1318.36 1500 1318.36C1510.78 1318.36 1520.44 1320.75 1527.33 1324.51C1534.29 1328.31 1538 1333.23 1538 1338.18Z" fill="#FFEDD4" fill-opacity="0.5" stroke="#FBE5D1" stroke-width="4"/>
<path d="M1462 1261.82V1337.46" stroke="#FBE5D1" stroke-width="4"/>
<path d="M1538 1261.82V1337.46" stroke="#FBE5D1" stroke-width="4"/>
<path d="M1500 1282V1358" stroke="#FBE5D1" stroke-width="4.19524"/>
<rect width="200" height="200" transform="translate(1600 1200)" fill="white"/>
<path fill-rule="evenodd" clip-rule="evenodd" d="M1670 1240H1640V1270H1670V1300H1640V1330H1670V1360H1700V1330H1730V1360H1760V1330H1730V1300H1760V1270H1730V1240H1700V1270H1670V1240ZM1700 1300H1730V1270H1700V1300ZM1700 1300H1670V1330H1700V1300Z" fill="#FBE5D1"/>
<rect width="200" height="200" transform="translate(1800 1200)" fill="white"/>
<path d="M1872 1300C1887.46 1300 1900 1287.46 1900 1272C1900 1256.54 1887.46 1244 1872 1244C1856.54 1244 1844 1256.54 1844 1272C1844 1287.46 1856.54 1300 1872 1300Z" fill="white" stroke="#FBE5D1" stroke-width="4"/>
<path d="M1871.21 1250.81L1872 1248.4L1872.79 1250.81C1875.97 1260.46 1883.54 1268.03 1893.19 1271.21L1895.6 1272L1893.19 1272.79C1883.54 1275.97 1875.97 1283.54 1872.79 1293.19L1872 1295.6L1871.21 1293.19C1868.03 1283.54 1860.46 1275.97 1850.81 1272.79L1848.4 1272L1850.81 1271.21C1860.46 1268.03 1868.03 1260.46 1871.21 1250.81Z" fill="#CCF5AC" fill-opacity="0.25" stroke="#FBE5D1" stroke-width="4"/>
<path d="M1872 1356C1887.46 1356 1900 1343.46 1900 1328C1900 1312.54 1887.46 1300 1872 1300C1856.54 1300 1844 1312.54 1844 1328C1844 1343.46 1856.54 1356 1872 1356Z" fill="white" stroke="#FBE5D1" stroke-width="4"/>
<path d="M1928 1300C1943.46 1300 1956 1287.46 1956 1272C1956 1256.54 1943.46 1244 1928 1244C1912.54 1244 1900 1256.54 1900 1272C1900 1287.46 1912.54 1300 1928 1300Z" fill="white" stroke="#FBE5D1" stroke-width="4"/>
<path d="M1928 1356C1943.46 1356 1956 1343.46 1956 1328C1956 1312.54 1943.46 1300 1928 1300C1912.54 1300 1900 1312.54 1900 1328C1900 1343.46 1912.54 1356 1928 1356Z" fill="white" stroke="#FBE5D1" stroke-width="4"/>
<path d="M1927.21 1306.81L1928 1304.4L1928.79 1306.81C1931.97 1316.46 1939.54 1324.03 1949.19 1327.21L1951.6 1328L1949.19 1328.79C1939.54 1331.97 1931.97 1339.54 1928.79 1349.19L1928 1351.6L1927.21 1349.19C1924.03 1339.54 1916.46 1331.97 1906.81 1328.79L1904.4 1328L1906.81 1327.21C1916.46 1324.03 1924.03 1316.46 1927.21 1306.81Z" fill="#FFEDD4" fill-opacity="0.5" stroke="#FBE5D1" stroke-width="4"/>
<rect width="200" height="200" transform="translate(0 1400)" fill="white"/>
<path d="M166.5 1516L101 1446V1554.5L166.5 1516Z" fill="#FFEDD4" fill-opacity="0.5"/>
<path d="M99.5 1446L165 1516L99.5 1554.5M99.5 1446L33 1516L99.5 1554.5M99.5 1446V1554.5" stroke="#FBE5D1" stroke-width="4"/>
<rect width="200" height="200" transform="translate(200 1400)" fill="white"/>
<path d="M263.464 1457L311.962 1541L360.459 1457H263.464Z" fill="#FFEDD4" fill-opacity="0.5" stroke="#FBE5D1" stroke-width="4"/>
<path d="M239.464 1543L287.962 1459L336.459 1543H239.464Z" stroke="#FBE5D1" stroke-width="4"/>
<rect width="200" height="200" transform="translate(400 1400)" fill="white"/>
<path d="M538 1461.82C538 1466.77 534.294 1471.69 527.327 1475.49C520.435 1479.25 510.777 1481.64 500 1481.64C489.223 1481.64 479.565 1479.25 472.673 1475.49C465.706 1471.69 462 1466.77 462 1461.82C462 1456.87 465.706 1451.95 472.673 1448.15C479.565 1444.39 489.223 1442 500 1442C510.777 1442 520.435 1444.39 527.327 1448.15C534.294 1451.95 538 1456.87 538 1461.82Z" fill="#FFEDD4" fill-opacity="0.5" stroke="#FBE5D1" stroke-width="4"/>
<path d="M538 1538.18C538 1543.13 534.294 1548.05 527.327 1551.85C520.435 1555.61 510.777 1558 500 1558C489.223 1558 479.565 1555.61 472.673 1551.85C465.706 1548.05 462 1543.13 462 1538.18C462 1533.23 465.706 1528.31 472.673 1524.51C479.565 1520.75 489.223 1518.36 500 1518.36C510.777 1518.36 520.435 1520.75 527.327 1524.51C534.294 1528.31 538 1533.23 538 1538.18Z" fill="#FFEDD4" fill-opacity="0.5" stroke="#FBE5D1" stroke-width="4"/>
<path d="M462 1461.82V1537.46" stroke="#FBE5D1" stroke-width="4"/>
<path d="M538 1461.82V1537.46" stroke="#FBE5D1" stroke-width="4"/>
<path d="M500 1482V1558" stroke="#FBE5D1" stroke-width="4.19524"/>
<rect width="200" height="200" transform="translate(600 1400)" fill="white"/>
<path fill-rule="evenodd" clip-rule="evenodd" d="M670 1440H640V1470H670V1500H640V1530H670V1560H700V1530H730V1560H760V1530H730V1500H760V1470H730V1440H700V1470H670V1440ZM700 1500H730V1470H700V1500ZM700 1500H670V1530H700V1500Z" fill="#FBE5D1"/>
<rect width="200" height="200" transform="translate(800 1400)" fill="white"/>
<path d="M872 1500C887.464 1500 900 1487.46 900 1472C900 1456.54 887.464 1444 872 1444C856.536 1444 844 1456.54 844 1472C844 1487.46 856.536 1500 872 1500Z" fill="white" stroke="#FBE5D1" stroke-width="4"/>
<path d="M871.209 1450.81L872 1448.4L872.791 1450.81C875.967 1460.46 883.538 1468.03 893.192 1471.21L895.598 1472L893.192 1472.79C883.538 1475.97 875.967 1483.54 872.791 1493.19L872 1495.6L871.209 1493.19C868.034 1483.54 860.462 1475.97 850.808 1472.79L848.402 1472L850.808 1471.21C860.462 1468.03 868.034 1460.46 871.209 1450.81Z" fill="#CCF5AC" fill-opacity="0.25" stroke="#FBE5D1" stroke-width="4"/>
<path d="M872 1556C887.464 1556 900 1543.46 900 1528C900 1512.54 887.464 1500 872 1500C856.536 1500 844 1512.54 844 1528C844 1543.46 856.536 1556 872 1556Z" fill="white" stroke="#FBE5D1" stroke-width="4"/>
<path d="M928 1500C943.464 1500 956 1487.46 956 1472C956 1456.54 943.464 1444 928 1444C912.536 1444 900 1456.54 900 1472C900 1487.46 912.536 1500 928 1500Z" fill="white" stroke="#FBE5D1" stroke-width="4"/>
<path d="M928 1556C943.464 1556 956 1543.46 956 1528C956 1512.54 943.464 1500 928 1500C912.536 1500 900 1512.54 900 1528C900 1543.46 912.536 1556 928 1556Z" fill="white" stroke="#FBE5D1" stroke-width="4"/>
<path d="M927.209 1506.81L928 1504.4L928.791 1506.81C931.966 1516.46 939.538 1524.03 949.192 1527.21L951.598 1528L949.192 1528.79C939.538 1531.97 931.966 1539.54 928.791 1549.19L928 1551.6L927.209 1549.19C924.034 1539.54 916.462 1531.97 906.808 1528.79L904.402 1528L906.808 1527.21C916.462 1524.03 924.034 1516.46 927.209 1506.81Z" fill="#FFEDD4" fill-opacity="0.5" stroke="#FBE5D1" stroke-width="4"/>
<rect width="200" height="200" transform="translate(1000 1400)" fill="white"/>
<path d="M1102 1500C1102 1468.64 1126.89 1443.09 1158 1442.03V1500C1158 1531.36 1133.11 1556.91 1102 1557.97V1500Z" stroke="#FBE5D1" stroke-width="4"/>
<path d="M1040 1500C1040 1466.86 1066.86 1440 1100 1440V1500C1100 1533.14 1073.14 1560 1040 1560V1500Z" fill="#FFEDD4" fill-opacity="0.5"/>
<rect width="200" height="200" transform="translate(1200 1400)" fill="white"/>
<path fill-rule="evenodd" clip-rule="evenodd" d="M1317.98 1498.38C1328.14 1488.23 1328.14 1471.77 1317.98 1461.62C1307.83 1451.46 1291.37 1451.46 1281.21 1461.62C1271.06 1471.77 1271.06 1488.23 1281.21 1498.38C1291.37 1508.54 1307.83 1508.54 1317.98 1498.38ZM1320.81 1458.79C1309.09 1447.07 1290.1 1447.07 1278.38 1458.79C1269.36 1467.81 1267.29 1481.16 1272.17 1492.17C1261.16 1487.29 1247.81 1489.36 1238.79 1498.38C1227.07 1510.1 1227.07 1529.09 1238.79 1540.81C1250.5 1552.53 1269.5 1552.53 1281.21 1540.81L1299.6 1522.43L1299.6 1522.43L1317.98 1540.81C1329.7 1552.53 1348.69 1552.53 1360.41 1540.81C1372.12 1529.1 1372.12 1510.1 1360.41 1498.38C1351.38 1489.36 1338.04 1487.29 1327.03 1492.17C1331.91 1481.16 1329.84 1467.81 1320.81 1458.79ZM1307.39 1508.97C1302.29 1510.34 1296.9 1510.34 1291.8 1508.97L1299.6 1516.77L1307.39 1508.97ZM1296.77 1519.6L1278.38 1501.21C1268.23 1491.06 1251.77 1491.06 1241.62 1501.21C1231.46 1511.37 1231.46 1527.83 1241.62 1537.98C1251.77 1548.14 1268.23 1548.14 1278.38 1537.98L1296.77 1519.6ZM1302.43 1519.6L1320.81 1501.21C1330.96 1491.06 1347.43 1491.06 1357.58 1501.21C1367.73 1511.37 1367.73 1527.83 1357.58 1537.98C1347.43 1548.14 1330.96 1548.14 1320.81 1537.98L1302.43 1519.6Z" fill="#FBE5D1"/>
<rect width="200" height="200" transform="translate(1400 1400)" fill="white"/>
<path d="M1482.53 1486.25C1494.9 1498.62 1500.52 1515.19 1499.38 1531.38C1483.19 1532.52 1466.62 1526.9 1454.25 1514.53C1441.88 1502.16 1436.26 1485.59 1437.41 1469.41C1453.59 1468.26 1470.16 1473.88 1482.53 1486.25Z" fill="#CCF5AC" fill-opacity="0.25" stroke="#FBE5D1" stroke-width="4"/>
<path d="M1545.53 1514.53C1533.16 1526.9 1516.59 1532.52 1500.41 1531.38C1499.26 1515.19 1504.88 1498.62 1517.25 1486.25C1529.62 1473.88 1546.19 1468.26 1562.38 1469.41C1563.52 1485.59 1557.91 1502.16 1545.53 1514.53Z" fill="#CCF5AC" fill-opacity="0.25" stroke="#FBE5D1" stroke-width="4"/>
<rect width="200" height="200" transform="translate(1600 1400)" fill="white"/>
<path d="M1712.04 1410C1682.2 1410 1658 1419.01 1658 1430.12C1658 1441.24 1682.2 1450.25 1712.04 1450.25C1728.77 1450.25 1742.33 1446.43 1742.33 1441.73C1742.33 1437.02 1728.77 1433.21 1712.04 1433.21C1682.2 1433.21 1658 1442.22 1658 1453.33C1658 1464.45 1682.2 1473.46 1712.04 1473.46C1728.77 1473.46 1742.33 1469.64 1742.33 1464.94C1742.33 1460.23 1728.77 1456.42 1712.04 1456.42C1682.2 1456.42 1658 1465.48 1658 1476.67C1658 1487.85 1682.2 1496.91 1712.04 1496.91C1728.77 1496.91 1742.33 1493.1 1742.33 1488.39C1742.33 1483.69 1728.77 1479.88 1712.04 1479.88C1682.2 1479.88 1658 1488.89 1658 1500C1658 1511.11 1682.2 1520.12 1712.04 1520.12C1728.77 1520.12 1742.33 1516.31 1742.33 1511.61C1742.33 1506.9 1728.77 1503.09 1712.04 1503.09C1682.2 1503.09 1658 1512.1 1658 1523.21C1658 1534.32 1682.2 1543.33 1712.04 1543.33C1728.77 1543.33 1742.33 1539.52 1742.33 1534.82C1742.33 1530.11 1728.77 1526.3 1712.04 1526.3C1682.2 1526.3 1658 1535.31 1658 1546.42C1658 1557.53 1682.2 1566.54 1712.04 1566.54C1728.77 1566.54 1742.33 1562.73 1742.33 1558.02C1742.33 1553.32 1728.77 1549.51 1712.04 1549.51C1682.2 1549.51 1658 1558.57 1658 1569.75C1658 1580.94 1682.2 1590 1712.04 1590" stroke="#FBE5D1" stroke-width="4" stroke-linecap="round"/>
<rect width="200" height="200" transform="translate(1800 1400)" fill="white"/>
<path d="M1900 1528V1500H1928C1943.46 1500 1956 1512.54 1956 1528C1956 1543.46 1943.46 1556 1928 1556C1912.54 1556 1900 1543.46 1900 1528Z" stroke="#FBE5D1" stroke-width="4"/>
<path d="M1900 1528C1900 1543.46 1887.46 1556 1872 1556C1856.54 1556 1844 1543.46 1844 1528C1844 1512.54 1856.54 1500 1872 1500C1887.46 1500 1900 1512.54 1900 1528Z" stroke="#FBE5D1" stroke-width="4"/>
<path d="M1900 1472V1500H1928C1943.46 1500 1956 1487.46 1956 1472C1956 1456.54 1943.46 1444 1928 1444C1912.54 1444 1900 1456.54 1900 1472Z" stroke="#FBE5D1" stroke-width="4"/>
<path d="M1900 1472C1900 1456.54 1887.46 1444 1872 1444C1856.54 1444 1844 1456.54 1844 1472C1844 1487.46 1856.54 1500 1872 1500C1887.46 1500 1900 1487.46 1900 1472Z" stroke="#FBE5D1" stroke-width="4"/>
<rect width="200" height="200" transform="translate(0 1600)" fill="white"/>
<path d="M100 1728V1700H128C143.464 1700 156 1712.54 156 1728C156 1743.46 143.464 1756 128 1756C112.536 1756 100 1743.46 100 1728Z" stroke="#FBE5D1" stroke-width="4"/>
<path d="M100 1728C100 1743.46 87.464 1756 72 1756C56.536 1756 44 1743.46 44 1728C44 1712.54 56.536 1700 72 1700C87.464 1700 100 1712.54 100 1728Z" stroke="#FBE5D1" stroke-width="4"/>
<path d="M100 1672V1700H128C143.464 1700 156 1687.46 156 1672C156 1656.54 143.464 1644 128 1644C112.536 1644 100 1656.54 100 1672Z" stroke="#FBE5D1" stroke-width="4"/>
<path d="M100 1672C100 1656.54 87.464 1644 72 1644C56.536 1644 44 1656.54 44 1672C44 1687.46 56.536 1700 72 1700C87.464 1700 100 1687.46 100 1672Z" stroke="#FBE5D1" stroke-width="4"/>
<rect width="200" height="200" transform="translate(200 1600)" fill="white"/>
<path d="M240 1667L300 1696.23V1759.82L240 1734.18V1667Z" fill="#FFEDD4" fill-opacity="0.5"/>
<path d="M360 1667L300 1696.23V1759.82L360 1734.18V1667Z" fill="#CCF5AC" fill-opacity="0.25"/>
<path d="M300 1640V1696.41M300 1640L240 1667.18M300 1640L360 1667.18M300 1696.41L240 1667.18M300 1696.41L360 1667.18M300 1696.41V1760M240 1667.18V1734.36L300 1760M360 1667.18V1734.36L300 1760" stroke="#FBE5D1" stroke-width="4"/>
<rect width="200" height="200" transform="translate(400 1600)" fill="white"/>
<path d="M502 1700C502 1668.64 526.894 1643.09 558 1642.03V1700C558 1731.36 533.106 1756.91 502 1757.97V1700Z" stroke="#FBE5D1" stroke-width="4"/>
<path d="M440 1700C440 1666.86 466.863 1640 500 1640V1700C500 1733.14 473.137 1760 440 1760V1700Z" fill="#FFEDD4" fill-opacity="0.5"/>
<rect width="200" height="200" transform="translate(600 1600)" fill="white"/>
<path fill-rule="evenodd" clip-rule="evenodd" d="M717.983 1698.38C728.136 1688.23 728.136 1671.77 717.983 1661.62C707.829 1651.46 691.367 1651.46 681.213 1661.62C671.06 1671.77 671.06 1688.23 681.213 1698.38C691.367 1708.54 707.829 1708.54 717.983 1698.38ZM720.811 1658.79C709.095 1647.07 690.1 1647.07 678.385 1658.79C669.359 1667.81 667.287 1681.16 672.167 1692.17C661.158 1687.29 647.812 1689.36 638.787 1698.38C627.071 1710.1 627.071 1729.1 638.787 1740.81C650.502 1752.53 669.497 1752.53 681.213 1740.81L699.598 1722.43L699.598 1722.43L717.983 1740.81C729.699 1752.53 748.694 1752.53 760.409 1740.81C772.125 1729.1 772.125 1710.1 760.409 1698.38C751.384 1689.36 738.038 1687.29 727.029 1692.17C731.909 1681.16 729.837 1667.81 720.811 1658.79ZM707.393 1708.98C702.293 1710.34 696.903 1710.34 691.803 1708.98L699.598 1716.77L707.393 1708.98ZM696.77 1719.6L678.385 1701.21C668.231 1691.06 651.769 1691.06 641.615 1701.21C631.462 1711.37 631.462 1727.83 641.615 1737.98C651.769 1748.14 668.231 1748.14 678.385 1737.98L696.77 1719.6ZM702.426 1719.6L720.811 1701.21C730.965 1691.06 747.427 1691.06 757.581 1701.21C767.734 1711.37 767.734 1727.83 757.581 1737.98C747.427 1748.14 730.965 1748.14 720.811 1737.98L702.426 1719.6Z" fill="#FBE5D1"/>
<rect width="200" height="200" transform="translate(800 1600)" fill="white"/>
<path d="M882.533 1686.25C894.905 1698.62 900.52 1715.19 899.375 1731.38C883.188 1732.52 866.62 1726.9 854.249 1714.53C841.877 1702.16 836.262 1685.59 837.406 1669.41C853.593 1668.26 870.161 1673.88 882.533 1686.25Z" fill="#CCF5AC" fill-opacity="0.25" stroke="#FBE5D1" stroke-width="4"/>
<path d="M945.533 1714.53C933.161 1726.9 916.593 1732.52 900.406 1731.38C899.262 1715.19 904.877 1698.62 917.249 1686.25C929.62 1673.88 946.188 1668.26 962.375 1669.41C963.52 1685.59 957.905 1702.16 945.533 1714.53Z" fill="#CCF5AC" fill-opacity="0.25" stroke="#FBE5D1" stroke-width="4"/>
<rect width="200" height="200" transform="translate(1000 1600)" fill="white"/>
<path d="M1100.5 1646L1166 1716L1100.5 1754.5M1100.5 1646L1034 1716L1100.5 1754.5M1100.5 1646V1754.5" stroke="#FBE5D1" stroke-width="4"/>
<rect width="200" height="200" transform="translate(1200 1600)" fill="white"/>
<path d="M1300 1758C1332.03 1758 1358 1732.03 1358 1700C1358 1667.97 1332.03 1642 1300 1642C1267.97 1642 1242 1667.97 1242 1700C1242 1732.03 1267.97 1758 1300 1758Z" fill="white" stroke="#FBE5D1" stroke-width="4"/>
<path d="M1296.52 1656.99L1300 1646.4L1303.48 1656.99C1309.63 1675.7 1324.31 1690.37 1343.01 1696.52L1353.6 1700L1343.01 1703.48C1324.31 1709.63 1309.63 1724.31 1303.48 1743.01L1300 1753.6L1296.52 1743.01C1290.37 1724.31 1275.7 1709.63 1256.99 1703.48L1246.4 1700L1256.99 1696.52C1275.7 1690.37 1290.37 1675.7 1296.52 1656.99Z" fill="#FFEDD4" fill-opacity="0.5" stroke="#FBE5D1" stroke-width="4"/>
<rect width="200" height="200" transform="translate(1400 1600)" fill="white"/>
<path d="M1566.5 1716L1501 1646V1754.5L1566.5 1716Z" fill="#FFEDD4" fill-opacity="0.5"/>
<path d="M1499.5 1646L1565 1716L1499.5 1754.5M1499.5 1646L1433 1716L1499.5 1754.5M1499.5 1646V1754.5" stroke="#FBE5D1" stroke-width="4"/>
<rect width="200" height="200" transform="translate(1600 1600)" fill="white"/>
<path d="M1663.46 1657L1711.96 1741L1760.46 1657H1663.46Z" fill="#FFEDD4" fill-opacity="0.5" stroke="#FBE5D1" stroke-width="4"/>
<path d="M1639.46 1743L1687.96 1659L1736.46 1743H1639.46Z" stroke="#FBE5D1" stroke-width="4"/>
<rect width="200" height="200" transform="translate(1800 1600)" fill="white"/>
<path d="M1840 1676C1846.67 1670.67 1853.33 1670.67 1860 1676C1866.67 1681.33 1873.33 1681.33 1880 1676C1886.67 1670.67 1893.33 1670.67 1900 1676C1906.67 1681.33 1913.33 1681.33 1920 1676C1926.67 1670.67 1933.33 1670.67 1940 1676C1946.67 1681.33 1953.33 1681.33 1960 1676" stroke="#FBE5D1" stroke-width="4" stroke-linecap="round"/>
<path d="M1840 1700C1846.67 1694.67 1853.33 1694.67 1860 1700C1866.67 1705.33 1873.33 1705.33 1880 1700C1886.67 1694.67 1893.33 1694.67 1900 1700C1906.67 1705.33 1913.33 1705.33 1920 1700C1926.67 1694.67 1933.33 1694.67 1940 1700C1946.67 1705.33 1953.33 1705.33 1960 1700" stroke="#FBE5D1" stroke-width="4" stroke-linecap="round"/>
<path d="M1840 1724C1846.67 1718.67 1853.33 1718.67 1860 1724C1866.67 1729.33 1873.33 1729.33 1880 1724C1886.67 1718.67 1893.33 1718.67 1900 1724C1906.67 1729.33 1913.33 1729.33 1920 1724C1926.67 1718.67 1933.33 1718.67 1940 1724C1946.67 1729.33 1953.33 1729.33 1960 1724" stroke="#FBE5D1" stroke-width="4" stroke-linecap="round"/>
</svg>
