<svg width="120" height="44" viewBox="0 0 120 44" fill="none" xmlns="http://www.w3.org/2000/svg">
<rect width="120" height="44" rx="22" fill="#F5F1FE"/>
<path d="M43.8443 26.528H47.6043V28H42.0203V16.88H43.8443V26.528ZM52.9537 28.144C52.1217 28.144 51.3697 27.9573 50.6977 27.584C50.0257 27.2 49.4977 26.6667 49.1137 25.984C48.7297 25.2907 48.5377 24.4907 48.5377 23.584C48.5377 22.688 48.735 21.8933 49.1297 21.2C49.5244 20.5067 50.063 19.9733 50.7457 19.6C51.4284 19.2267 52.191 19.04 53.0337 19.04C53.8764 19.04 54.639 19.2267 55.3217 19.6C56.0044 19.9733 56.543 20.5067 56.9377 21.2C57.3324 21.8933 57.5297 22.688 57.5297 23.584C57.5297 24.48 57.327 25.2747 56.9217 25.968C56.5164 26.6613 55.9617 27.2 55.2577 27.584C54.5644 27.9573 53.7964 28.144 52.9537 28.144ZM52.9537 26.56C53.423 26.56 53.8604 26.448 54.2657 26.224C54.6817 26 55.0177 25.664 55.2737 25.216C55.5297 24.768 55.6577 24.224 55.6577 23.584C55.6577 22.944 55.535 22.4053 55.2897 21.968C55.0444 21.52 54.719 21.184 54.3137 20.96C53.9084 20.736 53.471 20.624 53.0017 20.624C52.5324 20.624 52.095 20.736 51.6897 20.96C51.295 21.184 50.9804 21.52 50.7457 21.968C50.511 22.4053 50.3937 22.944 50.3937 23.584C50.3937 24.5333 50.6337 25.2693 51.1137 25.792C51.6044 26.304 52.2177 26.56 52.9537 26.56ZM62.8848 19.04C63.5675 19.04 64.1701 19.1787 64.6928 19.456C65.2261 19.7227 65.6421 20.0587 65.9408 20.464V19.184H67.7808V28.144C67.7808 28.9547 67.6101 29.6747 67.2688 30.304C66.9275 30.944 66.4315 31.4453 65.7808 31.808C65.1408 32.1707 64.3728 32.352 63.4768 32.352C62.2821 32.352 61.2901 32.0693 60.5008 31.504C59.7115 30.9493 59.2635 30.192 59.1568 29.232H60.9648C61.1035 29.6907 61.3968 30.0587 61.8448 30.336C62.3035 30.624 62.8475 30.768 63.4768 30.768C64.2128 30.768 64.8048 30.544 65.2528 30.096C65.7115 29.648 65.9408 28.9973 65.9408 28.144V26.672C65.6315 27.088 65.2101 27.44 64.6768 27.728C64.1541 28.0053 63.5568 28.144 62.8848 28.144C62.1168 28.144 61.4128 27.952 60.7728 27.568C60.1435 27.1733 59.6421 26.6293 59.2688 25.936C58.9061 25.232 58.7248 24.4373 58.7248 23.552C58.7248 22.6667 58.9061 21.8827 59.2688 21.2C59.6421 20.5173 60.1435 19.9893 60.7728 19.616C61.4128 19.232 62.1168 19.04 62.8848 19.04ZM65.9408 23.584C65.9408 22.976 65.8128 22.448 65.5568 22C65.3115 21.552 64.9861 21.2107 64.5808 20.976C64.1755 20.7413 63.7381 20.624 63.2688 20.624C62.7995 20.624 62.3621 20.7413 61.9568 20.976C61.5515 21.2 61.2208 21.536 60.9648 21.984C60.7195 22.4213 60.5968 22.944 60.5968 23.552C60.5968 24.16 60.7195 24.6933 60.9648 25.152C61.2208 25.6107 61.5515 25.9627 61.9568 26.208C62.3728 26.4427 62.8101 26.56 63.2688 26.56C63.7381 26.56 64.1755 26.4427 64.5808 26.208C64.9861 25.9733 65.3115 25.632 65.5568 25.184C65.8128 24.7253 65.9408 24.192 65.9408 23.584ZM74.0006 28.144C73.1686 28.144 72.4166 27.9573 71.7446 27.584C71.0726 27.2 70.5446 26.6667 70.1606 25.984C69.7766 25.2907 69.5846 24.4907 69.5846 23.584C69.5846 22.688 69.7819 21.8933 70.1766 21.2C70.5712 20.5067 71.1099 19.9733 71.7926 19.6C72.4752 19.2267 73.2379 19.04 74.0806 19.04C74.9232 19.04 75.6859 19.2267 76.3686 19.6C77.0512 19.9733 77.5899 20.5067 77.9846 21.2C78.3792 21.8933 78.5766 22.688 78.5766 23.584C78.5766 24.48 78.3739 25.2747 77.9686 25.968C77.5632 26.6613 77.0086 27.2 76.3046 27.584C75.6112 27.9573 74.8432 28.144 74.0006 28.144ZM74.0006 26.56C74.4699 26.56 74.9072 26.448 75.3126 26.224C75.7286 26 76.0646 25.664 76.3206 25.216C76.5766 24.768 76.7046 24.224 76.7046 23.584C76.7046 22.944 76.5819 22.4053 76.3366 21.968C76.0912 21.52 75.7659 21.184 75.3606 20.96C74.9552 20.736 74.5179 20.624 74.0486 20.624C73.5792 20.624 73.1419 20.736 72.7366 20.96C72.3419 21.184 72.0272 21.52 71.7926 21.968C71.5579 22.4053 71.4406 22.944 71.4406 23.584C71.4406 24.5333 71.6806 25.2693 72.1606 25.792C72.6512 26.304 73.2646 26.56 74.0006 26.56Z" fill="#7E2E84"/>
</svg>
