<?xml version="1.0" standalone="no"?>
<!DOCTYPE svg PUBLIC "-//W3C//DTD SVG 20010904//EN"
 "http://www.w3.org/TR/2001/REC-SVG-20010904/DTD/svg10.dtd">
<svg version="1.0" xmlns="http://www.w3.org/2000/svg"
 width="40.000000pt" height="41.000000pt" viewBox="0 0 40.000000 41.000000"
 preserveAspectRatio="xMidYMid meet">

<g transform="translate(0.000000,41.000000) scale(0.100000,-0.100000)"
fill="#000000" stroke="none">
<path d="M86 244 c-20 -51 5 -119 54 -148 46 -26 50 -22 50 53 0 63 -2 70 -26
86 -22 14 -28 15 -35 4 -18 -29 -9 -70 22 -98 36 -33 24 -50 -15 -20 -30 24
-46 73 -35 112 8 28 -5 38 -15 11z m94 -46 c0 -12 -14 -10 -35 5 -10 8 -15 19
-11 26 6 9 13 8 27 -5 10 -9 19 -21 19 -26z m-10 -23 c7 -9 10 -18 7 -21 -7
-8 -47 14 -47 26 0 15 26 12 40 -5z"/>
<path d="M230 229 l-25 -21 26 15 c25 15 39 13 39 -4 0 -5 -13 -15 -30 -24
-16 -9 -30 -21 -30 -27 0 -6 8 -4 18 5 10 10 24 17 30 17 22 0 12 -19 -18 -37
-22 -13 -30 -25 -30 -45 0 -16 5 -28 13 -28 20 0 70 37 83 62 16 29 18 108 3
108 -7 0 -9 -10 -5 -25 8 -32 -15 -88 -45 -109 -33 -23 -36 -4 -5 28 25 24 32
58 20 90 -8 21 -14 20 -44 -5z"/>
</g>
</svg>