<svg width="331" height="220" viewBox="0 0 331 220" fill="none" xmlns="http://www.w3.org/2000/svg">
<g clip-path="url(#clip0_108_12484)">
<path d="M45.7031 213.07H41.8878V200.706H45.8722C47.0715 200.706 48.0978 200.954 48.951 201.449C49.8042 201.94 50.4582 202.646 50.913 203.568C51.3678 204.485 51.5952 205.584 51.5952 206.864C51.5952 208.152 51.3658 209.261 50.907 210.19C50.4482 211.116 49.7801 211.828 48.9027 212.327C48.0253 212.822 46.9588 213.07 45.7031 213.07ZM43.3849 211.742H45.6065C46.6288 211.742 47.476 211.545 48.1481 211.15C48.8202 210.756 49.3213 210.194 49.6513 209.466C49.9813 208.738 50.1463 207.87 50.1463 206.864C50.1463 205.866 49.9833 205.007 49.6573 204.286C49.3313 203.562 48.8443 203.006 48.1964 202.62C47.5484 202.23 46.7415 202.034 45.7756 202.034H43.3849V211.742Z" fill="#CCCAC9"/>
<path d="M84.3824 213.07V200.706H85.8796V211.742H91.6267V213.07H84.3824Z" fill="#CCCAC9"/>
<path d="M122.769 200.706H124.556L128.757 210.969H128.902L133.104 200.706H134.891V213.07H133.49V203.677H133.369L129.506 213.07H128.154L124.29 203.677H124.169V213.07H122.769V200.706Z" fill="#CCCAC9"/>
<path d="M164.435 200.706H166.222L170.424 210.969H170.569L174.77 200.706H176.557V213.07H175.157V203.677H175.036L171.172 213.07H169.82L165.956 203.677H165.836V213.07H164.435V200.706Z" fill="#CCCAC9"/>
<path d="M214.282 200.706H215.779V209.544C215.779 210.333 215.634 211.003 215.344 211.555C215.055 212.106 214.646 212.525 214.119 212.81C213.592 213.096 212.97 213.239 212.253 213.239C211.577 213.239 210.976 213.116 210.448 212.871C209.921 212.621 209.507 212.267 209.205 211.808C208.903 211.349 208.752 210.804 208.752 210.172H210.225C210.225 210.522 210.312 210.828 210.485 211.09C210.662 211.347 210.903 211.549 211.209 211.694C211.515 211.838 211.863 211.911 212.253 211.911C212.684 211.911 213.05 211.82 213.352 211.639C213.654 211.458 213.883 211.193 214.04 210.842C214.201 210.488 214.282 210.056 214.282 209.544V200.706Z" fill="#CCCAC9"/>
<path d="M250.093 200.706L253.764 211.114H253.908L257.579 200.706H259.149L254.609 213.07H253.063L248.524 200.706H250.093Z" fill="#CCCAC9"/>
<path d="M294.049 203.797C293.976 203.186 293.682 202.711 293.167 202.373C292.652 202.034 292.02 201.865 291.272 201.865C290.724 201.865 290.245 201.954 289.835 202.131C289.428 202.308 289.11 202.552 288.881 202.862C288.656 203.171 288.543 203.524 288.543 203.918C288.543 204.248 288.621 204.532 288.778 204.769C288.939 205.003 289.145 205.198 289.394 205.355C289.644 205.508 289.905 205.635 290.179 205.735C290.453 205.832 290.704 205.91 290.934 205.971L292.189 206.309C292.511 206.393 292.869 206.51 293.264 206.659C293.662 206.808 294.043 207.011 294.405 207.269C294.771 207.522 295.073 207.848 295.31 208.246C295.548 208.645 295.666 209.134 295.666 209.713C295.666 210.382 295.491 210.985 295.141 211.525C294.795 212.064 294.288 212.492 293.62 212.81C292.956 213.128 292.149 213.287 291.199 213.287C290.314 213.287 289.547 213.144 288.899 212.859C288.255 212.573 287.748 212.175 287.378 211.663C287.012 211.152 286.804 210.559 286.756 209.883H288.301C288.342 210.349 288.499 210.736 288.772 211.042C289.05 211.343 289.4 211.569 289.823 211.718C290.249 211.863 290.708 211.935 291.199 211.935C291.771 211.935 292.284 211.842 292.739 211.657C293.193 211.468 293.554 211.207 293.819 210.873C294.085 210.534 294.218 210.14 294.218 209.689C294.218 209.279 294.103 208.945 293.873 208.687C293.644 208.43 293.342 208.22 292.968 208.059C292.594 207.898 292.189 207.758 291.755 207.637L290.233 207.202C289.267 206.924 288.503 206.528 287.939 206.013C287.376 205.498 287.094 204.824 287.094 203.99C287.094 203.298 287.281 202.695 287.655 202.179C288.034 201.66 288.541 201.258 289.177 200.972C289.817 200.682 290.531 200.537 291.32 200.537C292.117 200.537 292.825 200.68 293.445 200.966C294.065 201.248 294.556 201.634 294.918 202.125C295.284 202.616 295.477 203.173 295.497 203.797H294.049ZM300.664 213.287C300.076 213.287 299.543 213.177 299.064 212.955C298.585 212.73 298.204 212.406 297.923 211.983C297.641 211.557 297.5 211.042 297.5 210.438C297.5 209.907 297.605 209.476 297.814 209.146C298.023 208.812 298.303 208.55 298.653 208.361C299.003 208.172 299.39 208.031 299.812 207.939C300.239 207.842 300.668 207.766 301.098 207.709C301.662 207.637 302.118 207.582 302.469 207.546C302.823 207.506 303.08 207.44 303.241 207.347C303.406 207.254 303.489 207.093 303.489 206.864V206.816C303.489 206.22 303.326 205.757 303 205.427C302.678 205.097 302.189 204.932 301.533 204.932C300.853 204.932 300.319 205.081 299.933 205.379C299.547 205.677 299.275 205.995 299.118 206.333L297.766 205.85C298.007 205.286 298.329 204.848 298.732 204.534C299.138 204.216 299.581 203.994 300.06 203.87C300.543 203.741 301.018 203.677 301.485 203.677C301.782 203.677 302.124 203.713 302.511 203.785C302.901 203.854 303.278 203.996 303.64 204.214C304.006 204.431 304.31 204.759 304.551 205.198C304.793 205.637 304.914 206.224 304.914 206.961V213.07H303.489V211.814H303.416C303.32 212.016 303.159 212.231 302.933 212.46C302.708 212.69 302.408 212.885 302.034 213.046C301.66 213.207 301.203 213.287 300.664 213.287ZM300.881 212.008C301.444 212.008 301.919 211.897 302.306 211.675C302.696 211.454 302.99 211.168 303.187 210.818C303.388 210.468 303.489 210.1 303.489 209.713V208.409C303.428 208.482 303.296 208.548 303.09 208.609C302.889 208.665 302.656 208.715 302.39 208.76C302.128 208.8 301.873 208.836 301.623 208.868C301.378 208.896 301.179 208.921 301.026 208.941C300.655 208.989 300.309 209.068 299.987 209.176C299.669 209.281 299.412 209.44 299.215 209.653C299.021 209.862 298.925 210.148 298.925 210.51C298.925 211.005 299.108 211.38 299.474 211.633C299.845 211.883 300.313 212.008 300.881 212.008Z" fill="#CCCAC9"/>
<path d="M45.5 185.5H295.5" stroke="#DEDEDE" stroke-opacity="0.5" stroke-width="2"/>
<path d="M23.8125 191.109C22.9029 191.109 22.1282 190.862 21.4883 190.366C20.8484 189.867 20.3594 189.145 20.0213 188.199C19.6832 187.249 19.5142 186.102 19.5142 184.758C19.5142 183.422 19.6832 182.281 20.0213 181.335C20.3634 180.385 20.8544 179.661 21.4943 179.162C22.1383 178.659 22.911 178.407 23.8125 178.407C24.714 178.407 25.4847 178.659 26.1246 179.162C26.7686 179.661 27.2596 180.385 27.5977 181.335C27.9397 182.281 28.1108 183.422 28.1108 184.758C28.1108 186.102 27.9418 187.249 27.6037 188.199C27.2656 189.145 26.7766 189.867 26.1367 190.366C25.4968 190.862 24.7221 191.109 23.8125 191.109ZM23.8125 189.781C24.714 189.781 25.4143 189.346 25.9134 188.477C26.4124 187.608 26.6619 186.368 26.6619 184.758C26.6619 183.688 26.5472 182.776 26.3178 182.023C26.0924 181.271 25.7665 180.697 25.3398 180.303C24.9173 179.909 24.4081 179.711 23.8125 179.711C22.919 179.711 22.2208 180.152 21.7177 181.033C21.2146 181.911 20.9631 183.152 20.9631 184.758C20.9631 185.829 21.0758 186.738 21.3011 187.487C21.5265 188.235 21.8505 188.805 22.2731 189.195C22.6997 189.586 23.2128 189.781 23.8125 189.781Z" fill="#CCCAC9"/>
<path d="M45.5 148H295.5" stroke="#DEDEDE" stroke-opacity="0.5" stroke-width="2"/>
<path d="M23.6435 153.609C22.9351 153.609 22.2972 153.468 21.7298 153.186C21.1623 152.905 20.7075 152.518 20.3654 152.027C20.0233 151.536 19.8362 150.977 19.804 150.349H21.2528C21.3092 150.909 21.5627 151.371 22.0135 151.738C22.4683 152.1 23.0116 152.281 23.6435 152.281C24.1506 152.281 24.6013 152.162 24.9957 151.925C25.3942 151.687 25.7061 151.361 25.9315 150.947C26.1609 150.528 26.2756 150.055 26.2756 149.528C26.2756 148.989 26.1568 148.508 25.9194 148.085C25.686 147.659 25.364 147.323 24.9535 147.077C24.543 146.832 24.0741 146.707 23.5469 146.703C23.1686 146.699 22.7802 146.757 22.3817 146.878C21.9833 146.995 21.6553 147.145 21.3977 147.331L19.9972 147.162L20.7457 141.076H27.169V142.404H22.0014L21.5668 146.051H21.6392C21.8928 145.85 22.2107 145.683 22.593 145.55C22.9754 145.417 23.3738 145.351 23.7884 145.351C24.545 145.351 25.2191 145.532 25.8107 145.894C26.4064 146.252 26.8732 146.743 27.2113 147.367C27.5534 147.991 27.7244 148.703 27.7244 149.504C27.7244 150.293 27.5473 150.997 27.1932 151.617C26.843 152.233 26.3601 152.72 25.7443 153.078C25.1286 153.432 24.4283 153.609 23.6435 153.609Z" fill="#CCCAC9"/>
<path d="M45.5 110.5H295.5" stroke="#DEDEDE" stroke-opacity="0.5" stroke-width="2"/>
<path d="M16.1264 103.576V115.94H14.6293V105.146H14.5568L11.5384 107.15V105.629L14.6293 103.576H16.1264ZM23.7148 116.109C22.8053 116.109 22.0305 115.862 21.3906 115.366C20.7507 114.867 20.2617 114.145 19.9237 113.199C19.5856 112.249 19.4165 111.102 19.4165 109.758C19.4165 108.422 19.5856 107.281 19.9237 106.335C20.2657 105.385 20.7567 104.661 21.3967 104.162C22.0406 103.659 22.8133 103.407 23.7148 103.407C24.6164 103.407 25.3871 103.659 26.027 104.162C26.6709 104.661 27.1619 105.385 27.5 106.335C27.8421 107.281 28.0131 108.422 28.0131 109.758C28.0131 111.102 27.8441 112.249 27.506 113.199C27.168 114.145 26.679 114.867 26.0391 115.366C25.3991 115.862 24.6244 116.109 23.7148 116.109ZM23.7148 114.781C24.6164 114.781 25.3166 114.346 25.8157 113.477C26.3147 112.608 26.5643 111.368 26.5643 109.758C26.5643 108.688 26.4496 107.776 26.2202 107.023C25.9948 106.271 25.6688 105.697 25.2422 105.303C24.8196 104.909 24.3105 104.711 23.7148 104.711C22.8214 104.711 22.1231 105.152 21.62 106.033C21.117 106.911 20.8654 108.152 20.8654 109.758C20.8654 110.829 20.9781 111.738 21.2035 112.487C21.4289 113.235 21.7528 113.805 22.1754 114.195C22.602 114.586 23.1152 114.781 23.7148 114.781Z" fill="#CCCAC9"/>
<path d="M45.5 73H295.5" stroke="#DEDEDE" stroke-opacity="0.5" stroke-width="2"/>
<path d="M16.1264 66.0764V78.44H14.6293V67.646H14.5568L11.5384 69.6502V68.1289L14.6293 66.0764H16.1264ZM23.5458 78.609C22.8375 78.609 22.1996 78.4682 21.6321 78.1865C21.0646 77.9047 20.6098 77.5184 20.2678 77.0274C19.9257 76.5364 19.7385 75.9769 19.7063 75.3491H21.1552C21.2115 75.9085 21.4651 76.3713 21.9158 76.7376C22.3706 77.0998 22.9139 77.2809 23.5458 77.2809C24.0529 77.2809 24.5037 77.1622 24.8981 76.9247C25.2965 76.6873 25.6084 76.3613 25.8338 75.9467C26.0632 75.5282 26.1779 75.0553 26.1779 74.5281C26.1779 73.9888 26.0592 73.5078 25.8217 73.0852C25.5883 72.6586 25.2663 72.3226 24.8558 72.0771C24.4453 71.8316 23.9764 71.7068 23.4492 71.7028C23.0709 71.6988 22.6825 71.7571 22.2841 71.8779C21.8857 71.9946 21.5576 72.1455 21.3001 72.3306L19.8995 72.1616L20.6481 66.0764H27.0714V67.4045H21.9038L21.4691 71.0508H21.5415C21.7951 70.8496 22.113 70.6825 22.4954 70.5497C22.8777 70.4169 23.2762 70.3505 23.6907 70.3505C24.4473 70.3505 25.1214 70.5316 25.7131 70.8938C26.3087 71.252 26.7756 71.743 27.1136 72.3668C27.4557 72.9907 27.6268 73.703 27.6268 74.5039C27.6268 75.2927 27.4497 75.9971 27.0955 76.6168C26.7454 77.2326 26.2624 77.7196 25.6467 78.0778C25.0309 78.432 24.3306 78.609 23.5458 78.609Z" fill="#CCCAC9"/>
<path d="M45.5 35.5H295.5" stroke="#DEDEDE" stroke-opacity="0.5" stroke-width="2"/>
<path d="M9.77983 40.94V39.8534L13.8608 35.386C14.3397 34.8628 14.7341 34.408 15.044 34.0217C15.3539 33.6313 15.5833 33.265 15.7322 32.923C15.8852 32.5768 15.9616 32.2146 15.9616 31.8363C15.9616 31.4017 15.857 31.0253 15.6477 30.7074C15.4425 30.3895 15.1607 30.144 14.8026 29.9709C14.4444 29.7978 14.0419 29.7113 13.5952 29.7113C13.1203 29.7113 12.7057 29.8099 12.3516 30.0071C12.0014 30.2003 11.7298 30.472 11.5366 30.8221C11.3474 31.1722 11.2528 31.5828 11.2528 32.0536H9.82812C9.82812 31.3292 9.99515 30.6933 10.3292 30.146C10.6632 29.5986 11.118 29.172 11.6935 28.8661C12.2731 28.5603 12.9231 28.4073 13.6435 28.4073C14.3679 28.4073 15.0098 28.5603 15.5692 28.8661C16.1287 29.172 16.5674 29.5845 16.8853 30.1037C17.2032 30.6229 17.3622 31.2004 17.3622 31.8363C17.3622 32.2911 17.2797 32.7358 17.1147 33.1705C16.9537 33.6011 16.672 34.082 16.2695 34.6133C15.8711 35.1405 15.3177 35.7845 14.6094 36.5451L11.8324 39.5153V39.6119H17.5795V40.94H9.77983ZM24.1055 41.109C23.1959 41.109 22.4212 40.8615 21.7812 40.3665C21.1413 39.8674 20.6523 39.145 20.3143 38.1992C19.9762 37.2494 19.8072 36.1024 19.8072 34.7582C19.8072 33.422 19.9762 32.281 20.3143 31.3352C20.6564 30.3854 21.1474 29.661 21.7873 29.1619C22.4312 28.6589 23.204 28.4073 24.1055 28.4073C25.007 28.4073 25.7777 28.6589 26.4176 29.1619C27.0616 29.661 27.5526 30.3854 27.8906 31.3352C28.2327 32.281 28.4038 33.422 28.4038 34.7582C28.4038 36.1024 28.2347 37.2494 27.8967 38.1992C27.5586 39.145 27.0696 39.8674 26.4297 40.3665C25.7898 40.8615 25.015 41.109 24.1055 41.109ZM24.1055 39.7809C25.007 39.7809 25.7073 39.3463 26.2063 38.4769C26.7054 37.6076 26.9549 36.368 26.9549 34.7582C26.9549 33.6876 26.8402 32.7761 26.6108 32.0235C26.3854 31.2708 26.0594 30.6973 25.6328 30.3029C25.2102 29.9085 24.7011 29.7113 24.1055 29.7113C23.212 29.7113 22.5137 30.152 22.0107 31.0334C21.5076 31.9108 21.256 33.1524 21.256 34.7582C21.256 35.8287 21.3687 36.7383 21.5941 37.4869C21.8195 38.2355 22.1435 38.8049 22.5661 39.1953C22.9927 39.5857 23.5058 39.7809 24.1055 39.7809Z" fill="#FFA326"/>
<path d="M87.1667 185H128.833H170.5H212.167H253.833L295.5 126V185H253.833H212.167H170.5H128.833H87.1667Z" fill="#FF9900" fill-opacity="0.1"/>
<path d="M45.5 185H87.1667H128.833H170.5H212.167H253.833L294.5 126" stroke="#FFA326" stroke-width="2"/>
<path d="M45.5 188.75C47.5711 188.75 49.25 187.071 49.25 185C49.25 182.929 47.5711 181.25 45.5 181.25C43.4289 181.25 41.75 182.929 41.75 185C41.75 187.071 43.4289 188.75 45.5 188.75Z" fill="white" stroke="#FFA326" stroke-width="2"/>
<path d="M87.1665 188.75C89.2376 188.75 90.9165 187.071 90.9165 185C90.9165 182.929 89.2376 181.25 87.1665 181.25C85.0954 181.25 83.4165 182.929 83.4165 185C83.4165 187.071 85.0954 188.75 87.1665 188.75Z" fill="white" stroke="#FFA326" stroke-width="2"/>
<path d="M128.833 188.75C130.905 188.75 132.583 187.071 132.583 185C132.583 182.929 130.905 181.25 128.833 181.25C126.762 181.25 125.083 182.929 125.083 185C125.083 187.071 126.762 188.75 128.833 188.75Z" fill="white" stroke="#FFA326" stroke-width="2"/>
<path d="M170.5 188.75C172.571 188.75 174.25 187.071 174.25 185C174.25 182.929 172.571 181.25 170.5 181.25C168.429 181.25 166.75 182.929 166.75 185C166.75 187.071 168.429 188.75 170.5 188.75Z" fill="white" stroke="#FFA326" stroke-width="2"/>
<path d="M212.167 188.75C214.238 188.75 215.917 187.071 215.917 185C215.917 182.929 214.238 181.25 212.167 181.25C210.095 181.25 208.417 182.929 208.417 185C208.417 187.071 210.095 188.75 212.167 188.75Z" fill="white" stroke="#FFA326" stroke-width="2"/>
<path d="M253.833 188.75C255.905 188.75 257.583 187.071 257.583 185C257.583 182.929 255.905 181.25 253.833 181.25C251.762 181.25 250.083 182.929 250.083 185C250.083 187.071 251.762 188.75 253.833 188.75Z" fill="white" stroke="#FFA326" stroke-width="2"/>
<path d="M294.75 129.5C296.821 129.5 298.5 127.821 298.5 125.75C298.5 123.679 296.821 122 294.75 122C292.679 122 291 123.679 291 125.75C291 127.821 292.679 129.5 294.75 129.5Z" fill="white" stroke="#FFA326" stroke-width="2"/>
</g>
<defs>
<clipPath id="clip0_108_12484">
<rect width="320" height="220" fill="white" transform="translate(0.5)"/>
</clipPath>
</defs>
</svg>
